<svg width="18" height="18" viewBox="0 0 18 18" fill="none" xmlns="http://www.w3.org/2000/svg">
<path fill-rule="evenodd" clip-rule="evenodd" d="M17.2555 8.51662L9.25449 0.51562C8.93445 0.19558 8.48995 0 8.001 0H1.778C0.8001 0 0 0.8001 0 1.778V8.001C0 8.48995 0.19558 8.93445 0.52451 9.26338L8.52551 17.2644C8.84555 17.5844 9.29005 17.78 9.779 17.78C10.2679 17.78 10.7125 17.5844 11.0325 17.2555L17.2555 11.0325C17.5844 10.7125 17.78 10.2679 17.78 9.779C17.78 9.29005 17.5755 8.83666 17.2555 8.51662V8.51662ZM3.1128 4.44044C2.37493 4.44044 1.7793 3.84481 1.7793 3.10694C1.7793 2.36907 2.37493 1.77344 3.1128 1.77344C3.85067 1.77344 4.4463 2.36907 4.4463 3.10694C4.4463 3.84481 3.85067 4.44044 3.1128 4.44044V4.44044ZM13.575 11.796L9.77898 15.5921L5.98295 11.796C5.5829 11.3871 5.33398 10.8359 5.33398 10.2225C5.33398 8.99568 6.32966 8 7.55648 8C8.16989 8 8.72996 8.24892 9.13001 8.65786L9.77898 9.29794L10.428 8.64897C10.828 8.24892 11.3881 8 12.0015 8C13.2283 8 14.224 8.99568 14.224 10.2225C14.224 10.8359 13.9751 11.396 13.575 11.796V11.796Z" fill="white"/>
</svg>
