<svg width="21" height="15" viewBox="0 0 21 15" fill="none" xmlns="http://www.w3.org/2000/svg">
<path fill-rule="evenodd" clip-rule="evenodd" d="M0.923884 0H19.4016C19.9118 0 20.3254 0.413654 20.3254 0.923884V13.8583C20.3254 14.3685 19.9118 14.7821 19.4016 14.7821H0.923884C0.413654 14.7821 0 14.3685 0 13.8583V0.923884C0 0.413654 0.413654 0 0.923884 0ZM1.85156 12.9382H18.4815V1.85156H1.85156V12.9382Z" fill="white"/>
<circle cx="6.88606" cy="5.63801" r="2.2552" fill="white"/>
<path d="M6.89861 7.875C4.96123 7.875 3.39062 9.44548 3.39062 11.383H10.4066C10.4066 9.44548 8.836 7.875 6.89861 7.875Z" fill="white"/>
<path d="M12.8399 6.15246H15.6996C16.2099 6.15246 16.6235 5.7388 16.6235 5.22857C16.6235 4.71834 16.2099 4.30469 15.6996 4.30469H12.8399C12.3297 4.30469 11.916 4.71834 11.916 5.22857C11.916 5.7388 12.3297 6.15246 12.8399 6.15246Z" fill="white"/>
<path d="M12.8399 10.4728H15.6996C16.2099 10.4728 16.6235 10.0591 16.6235 9.54888C16.6235 9.03865 16.2099 8.625 15.6996 8.625H12.8399C12.3297 8.625 11.916 9.03865 11.916 9.54888C11.916 10.0591 12.3297 10.4728 12.8399 10.4728Z" fill="white"/>
</svg>
