<svg width="17" height="14" viewBox="0 0 17 14" fill="none" xmlns="http://www.w3.org/2000/svg">
<rect x="7.48633" y="5.72656" width="1.6637" height="2.61439" fill="white"/>
<path d="M9.87822 8.55241C9.87822 8.83008 9.64545 9.05518 9.35831 9.05518H7.27869C6.99155 9.05518 6.75878 8.83008 6.75878 8.55241V7.54688H0V12.0718C0 12.6271 0.46554 13.0773 1.03981 13.0773H15.5972C16.1715 13.0773 16.637 12.6271 16.637 12.0718V7.54688H9.87822V8.55241Z" fill="white"/>
<path fill-rule="evenodd" clip-rule="evenodd" d="M14.3598 2.15687L16.4862 4.21319C16.5823 4.30683 16.6364 4.43323 16.637 4.56512V6.53597H9.87823V5.53044C9.87823 5.25277 9.64546 5.02767 9.35832 5.02767H7.2787C6.99156 5.02767 6.75879 5.25277 6.75879 5.53044V6.53597H8.70129e-06V4.57015C-0.000790269 4.43651 0.0534621 4.30807 0.150781 4.21319L2.272 2.15687C2.37011 2.06276 2.50294 2.01029 2.64113 2.01107H5.19907V1.03067C5.18059 0.770379 5.27186 0.513939 5.45208 0.319775C5.63229 0.12561 5.88611 0.0102585 6.1557 0H10.3981C10.9663 0.0218129 11.411 0.48096 11.3964 1.03067V2.01107H13.9959C14.1323 2.01162 14.263 2.06399 14.3598 2.15687ZM6.23828 2.01335H10.3975V1.00781H6.23828V2.01335Z" fill="white"/>
</svg>
