<svg width="20" height="23" viewBox="0 0 20 23" fill="none" xmlns="http://www.w3.org/2000/svg">
<path fill-rule="evenodd" clip-rule="evenodd" d="M10.0589 1C5.17256 1.11802 1.24051 4.89604 1.11768 9.59091C1.20058 10.979 1.59903 12.3328 2.285 13.557L2.35454 13.6764C7.75898 22 9.37336 22 10.0589 22C11.1318 22 12.2892 21.2745 15.0262 17.5757C16.4617 15.6666 17.6936 13.7575 17.7433 13.6716L17.8128 13.557C18.5057 12.3343 18.911 10.9805 19 9.59091C18.8772 4.89604 14.9451 1.11802 10.0589 1V1ZM16.5164 12.9297C16.5164 12.9297 11.5491 20.5661 10.0589 20.5661C8.56869 20.5661 3.60137 12.9297 3.60137 12.9297C3.02389 11.8977 2.68502 10.7581 2.60791 9.58878C2.60791 5.63492 5.94383 2.42969 10.0589 2.42969C14.174 2.42969 17.5099 5.63492 17.5099 9.58878C17.4281 10.7592 17.0842 11.8988 16.5015 12.9297H16.5164Z" fill="black"/>
<path d="M1.11768 9.59091L0.617847 9.57783L0.617285 9.59929L0.618565 9.62072L1.11768 9.59091ZM2.285 13.557L1.84874 13.8015L1.85301 13.8088L2.285 13.557ZM2.35454 13.6764L1.92255 13.9281L1.92862 13.9385L1.93518 13.9486L2.35454 13.6764ZM15.0262 17.5757L14.6265 17.2752L14.6242 17.2783L15.0262 17.5757ZM17.7433 13.6716L17.3158 13.4121L17.3104 13.4213L17.7433 13.6716ZM17.8128 13.557L18.2402 13.8165L18.2441 13.8101L18.2478 13.8036L17.8128 13.557ZM19 9.59091L19.499 9.62288L19.5004 9.60038L19.4999 9.57783L19 9.59091ZM16.5164 12.9297L16.9355 13.2023L17.4381 12.4297H16.5164V12.9297ZM3.60137 12.9297L3.16504 13.1739L3.17317 13.1884L3.18224 13.2023L3.60137 12.9297ZM2.60791 9.58878H2.10791V9.60525L2.10899 9.62168L2.60791 9.58878ZM17.5099 9.58878L18.0087 9.62361L18.0099 9.60621V9.58878H17.5099ZM16.5015 12.9297L16.0662 12.6837L15.6445 13.4297H16.5015V12.9297ZM10.0468 0.500146C4.91182 0.624176 0.748101 4.59941 0.617847 9.57783L1.6175 9.60399C1.73292 5.19266 5.43331 1.61187 10.0709 1.49985L10.0468 0.500146ZM0.618565 9.62072C0.706009 11.0849 1.12628 12.512 1.8488 13.8015L2.72119 13.3126C2.07177 12.1536 1.69514 10.8731 1.61679 9.5611L0.618565 9.62072ZM1.85301 13.8088L1.92255 13.9281L2.78652 13.4246L2.71698 13.3053L1.85301 13.8088ZM1.93518 13.9486C4.64397 18.1206 6.42768 20.2467 7.64322 21.3324C8.25392 21.8779 8.73897 22.1771 9.14358 22.3355C9.56228 22.4995 9.86545 22.5 10.0589 22.5V21.5C9.90951 21.5 9.75382 21.5005 9.50815 21.4044C9.24837 21.3026 8.86353 21.0816 8.30939 20.5866C7.19526 19.5915 5.46955 17.5558 2.7739 13.4041L1.93518 13.9486ZM10.0589 22.5C10.743 22.5 11.4105 22.2553 12.2403 21.5576C13.0528 20.8744 14.0549 19.7289 15.4281 17.8731L14.6242 17.2783C13.2604 19.1214 12.3153 20.188 11.5967 20.7922C10.8953 21.382 10.4477 21.5 10.0589 21.5V22.5ZM15.4258 17.8762C16.868 15.9582 18.1127 14.0315 18.1761 13.9219L17.3104 13.4213C17.3116 13.4193 17.2949 13.4463 17.2506 13.5153C17.2103 13.578 17.1534 13.6657 17.0816 13.7751C16.9381 13.9939 16.7361 14.298 16.4908 14.659C16.0001 15.3814 15.338 16.329 14.6265 17.2752L15.4258 17.8762ZM18.1707 13.9311L18.2402 13.8165L17.3854 13.2976L17.3159 13.4121L18.1707 13.9311ZM18.2478 13.8036C18.9776 12.5157 19.4051 11.0886 19.499 9.62288L18.5011 9.55894C18.4169 10.8723 18.0338 12.153 17.3778 13.3105L18.2478 13.8036ZM19.4999 9.57783C19.3696 4.59941 15.2059 0.624176 10.0709 0.500146L10.0468 1.49985C14.6844 1.61187 18.3848 5.19266 18.5002 9.60399L19.4999 9.57783ZM16.5164 12.9297C16.0973 12.6571 16.0973 12.6571 16.0973 12.6571C16.0972 12.6571 16.0972 12.6572 16.0971 12.6573C16.097 12.6575 16.0968 12.6578 16.0965 12.6582C16.096 12.6591 16.0951 12.6604 16.094 12.6621C16.0917 12.6656 16.0882 12.671 16.0836 12.678C16.0743 12.6922 16.0605 12.7133 16.0424 12.7409C16.0061 12.7962 15.9525 12.8775 15.8836 12.9811C15.7459 13.1884 15.5472 13.4849 15.3041 13.8409C14.8175 14.5533 14.1544 15.5015 13.4461 16.4484C12.7358 17.3978 11.9886 18.3346 11.3328 19.0298C11.0039 19.3785 10.71 19.6536 10.4642 19.8379C10.3416 19.9299 10.2412 19.9914 10.1632 20.0283C10.0814 20.067 10.0506 20.0661 10.0589 20.0661V21.0661C10.4224 21.0661 10.7787 20.852 11.0642 20.6379C11.3753 20.4046 11.7139 20.0832 12.0603 19.7159C12.755 18.9793 13.529 18.007 14.2468 17.0474C14.9666 16.0852 15.6385 15.1243 16.1299 14.4049C16.3757 14.0449 16.5768 13.7448 16.7165 13.5345C16.7864 13.4293 16.841 13.3466 16.8781 13.29C16.8967 13.2617 16.911 13.2399 16.9206 13.2252C16.9255 13.2178 16.9291 13.2121 16.9316 13.2083C16.9329 13.2064 16.9338 13.2049 16.9345 13.2039C16.9348 13.2034 16.9351 13.2031 16.9352 13.2028C16.9353 13.2027 16.9354 13.2025 16.9354 13.2025C16.9355 13.2024 16.9355 13.2023 16.5164 12.9297ZM10.0589 20.0661C10.0672 20.0661 10.0364 20.067 9.95459 20.0283C9.87655 19.9914 9.77621 19.9299 9.65355 19.8379C9.40782 19.6536 9.11383 19.3785 8.78496 19.0298C8.12922 18.3346 7.38193 17.3978 6.67168 16.4484C5.96337 15.5015 5.30025 14.5533 4.81369 13.8409C4.57057 13.4849 4.37191 13.1884 4.23418 12.9811C4.16532 12.8775 4.11171 12.7962 4.07541 12.7409C4.05725 12.7133 4.04343 12.6922 4.0342 12.678C4.02958 12.671 4.02611 12.6656 4.02381 12.6621C4.02267 12.6604 4.02181 12.6591 4.02126 12.6582C4.02099 12.6578 4.02078 12.6575 4.02066 12.6573C4.02059 12.6572 4.02056 12.6571 4.02052 12.6571C4.0205 12.6571 4.0205 12.6571 3.60137 12.9297C3.18224 13.2023 3.18228 13.2024 3.18234 13.2025C3.18238 13.2025 3.18246 13.2027 3.18254 13.2028C3.18272 13.2031 3.18297 13.2034 3.1833 13.2039C3.18395 13.2049 3.1849 13.2064 3.18615 13.2083C3.18864 13.2121 3.19232 13.2178 3.19714 13.2252C3.20679 13.2399 3.22105 13.2617 3.23964 13.29C3.27683 13.3466 3.33139 13.4293 3.40127 13.5345C3.54101 13.7448 3.74206 14.0449 3.98792 14.4049C4.47929 15.1243 5.15114 16.0852 5.87094 17.0474C6.58879 18.007 7.36274 18.9793 8.05749 19.7159C8.40387 20.0832 8.74244 20.4046 9.05359 20.6379C9.33906 20.852 9.69543 21.0661 10.0589 21.0661V20.0661ZM4.0377 12.6855C3.49619 11.7178 3.179 10.6503 3.10683 9.55588L2.10899 9.62168C2.19105 10.8659 2.55159 12.0776 3.16504 13.1739L4.0377 12.6855ZM3.10791 9.58878C3.10791 5.92971 6.20095 2.92969 10.0589 2.92969V1.92969C5.68671 1.92969 2.10791 5.34014 2.10791 9.58878H3.10791ZM10.0589 2.92969C13.9168 2.92969 17.0099 5.92971 17.0099 9.58878H18.0099C18.0099 5.34014 14.4311 1.92969 10.0589 1.92969V2.92969ZM17.0111 9.55395C16.9346 10.6494 16.6126 11.717 16.0662 12.6837L16.9368 13.1757C17.5557 12.0807 17.9217 10.869 18.0087 9.62361L17.0111 9.55395ZM16.5015 13.4297H16.5164V12.4297H16.5015V13.4297Z" fill="black"/>
<path d="M12.8587 9.2903C12.8587 10.864 11.5656 12.1587 9.94692 12.1587C8.32826 12.1587 7.03516 10.864 7.03516 9.2903C7.03516 7.71659 8.32826 6.42188 9.94692 6.42188C11.5656 6.42188 12.8587 7.71659 12.8587 9.2903Z" stroke="#EC4624" stroke-width="2"/>
</svg>
