<svg width="632" height="105" viewBox="0 0 632 105" fill="none" xmlns="http://www.w3.org/2000/svg">
<path fill-rule="evenodd" clip-rule="evenodd" d="M240.194 4.375H240.608C240.732 4.375 240.801 4.43578 240.815 4.55765L242.576 13.9375L243.291 17.7459L243.357 17.7492L244.028 13.9484L245.684 4.55916C245.71 4.43639 245.775 4.375 245.88 4.375H246.289C246.394 4.375 246.439 4.44153 246.426 4.57428L243.787 18.6501C243.761 18.7789 243.689 18.843 243.57 18.843H243.018C242.899 18.843 242.827 18.7819 242.801 18.6586L241.034 9.24908L240.414 5.94355L240.349 5.93901L239.724 9.24394L237.945 18.6507C237.932 18.7792 237.86 18.843 237.729 18.843H237.179C237.061 18.843 236.989 18.781 236.963 18.657L234.344 4.58154C234.331 4.44425 234.37 4.375 234.461 4.375H234.87C234.974 4.375 235.039 4.43881 235.065 4.56672L236.735 13.9408L237.419 17.7759L237.511 17.7698L238.229 13.9408L239.987 4.56067C240.001 4.43699 240.07 4.375 240.194 4.375" fill="#1D1D1B"/>
<path fill-rule="evenodd" clip-rule="evenodd" d="M252.754 11.7844H248.614V18.1412H252.937C253.045 18.1412 253.1 18.1965 253.1 18.3063V18.6779C253.1 18.788 253.045 18.843 252.937 18.843H248.045C247.937 18.843 247.883 18.788 247.883 18.6779V4.56067C247.883 4.43699 247.944 4.375 248.065 4.375H252.896C253.004 4.375 253.059 4.43699 253.059 4.56067V4.91146C253.059 5.02183 253.004 5.07657 252.896 5.07657H248.614V11.0828H252.754C252.876 11.0828 252.937 11.1376 252.937 11.2479V11.5987C252.937 11.7224 252.876 11.7844 252.754 11.7844" fill="#1D1D1B"/>
<path fill-rule="evenodd" clip-rule="evenodd" d="M255.453 18.1427H257.483C258.592 18.1427 259.418 17.8951 259.959 17.3997C260.5 16.9041 260.771 16.0719 260.771 14.9022C260.771 13.7879 260.517 12.9762 260.01 12.4667C259.503 11.958 258.708 11.7031 257.625 11.7031H255.453V18.1427ZM255.453 11.0221H257.524C258.525 11.0221 259.269 10.7781 259.756 10.2894C260.243 9.80131 260.487 9.03412 260.487 7.98812C260.487 6.90129 260.253 6.14439 259.787 5.718C259.32 5.29162 258.572 5.07812 257.544 5.07812H255.453V11.0221ZM257.503 18.8427H254.885C254.776 18.8427 254.723 18.788 254.723 18.6776V4.56067C254.723 4.43699 254.776 4.375 254.885 4.375H257.585C258.789 4.375 259.695 4.65321 260.304 5.21053C260.913 5.76785 261.218 6.68624 261.218 7.9663C261.218 8.97057 261.022 9.74441 260.629 10.2878C260.236 10.8315 259.736 11.172 259.127 11.3096C260.724 11.6399 261.522 12.8437 261.522 14.9215C261.522 16.3113 261.184 17.3123 260.508 17.9243C259.831 18.537 258.829 18.8427 257.503 18.8427V18.8427Z" fill="#1D1D1B"/>
<path fill-rule="evenodd" clip-rule="evenodd" d="M268.017 15.6036C268.017 17.9018 266.941 19.0503 264.79 19.0503C264.032 19.0503 263.382 18.9678 262.841 18.8026C262.719 18.7751 262.658 18.6995 262.658 18.5755V18.2662C262.658 18.1289 262.726 18.0736 262.861 18.1011C263.443 18.2662 264.072 18.3487 264.749 18.3487C266.441 18.3487 267.286 17.4279 267.286 15.5866C267.286 14.9821 267.164 14.4254 266.918 13.9171C266.673 13.4087 266.404 13.0202 266.114 12.7519C265.823 12.4837 265.422 12.113 264.911 11.6409C264.167 11.0219 263.595 10.4062 263.196 9.79385C262.797 9.18179 262.598 8.40764 262.598 7.47172C262.598 6.42632 262.831 5.62133 263.298 5.05705C263.765 4.49308 264.559 4.21094 265.683 4.21094C266.251 4.21094 266.806 4.28654 267.347 4.43804C267.469 4.47917 267.53 4.56172 267.53 4.68571V4.9748C267.53 5.11239 267.455 5.16743 267.307 5.13961C266.779 4.98841 266.237 4.91251 265.683 4.91251C264.817 4.91251 264.208 5.12993 263.856 5.56478C263.504 5.99933 263.328 6.6374 263.328 7.47897C263.328 8.27943 263.503 8.94531 263.852 9.47633C264.202 10.0079 264.712 10.5492 265.384 11.1011C265.942 11.6043 266.38 12.0005 266.7 12.2889C267.019 12.5774 267.318 13.0202 267.598 13.6174C267.877 14.2143 268.017 14.8766 268.017 15.6036" fill="#1D1D1B"/>
<path fill-rule="evenodd" clip-rule="evenodd" d="M269.723 18.6779V4.56067C269.723 4.43699 269.784 4.375 269.905 4.375H270.291C270.399 4.375 270.454 4.43699 270.454 4.56067V18.6779C270.454 18.788 270.399 18.843 270.291 18.843H269.905C269.784 18.843 269.723 18.788 269.723 18.6779" fill="#1D1D1B"/>
<path fill-rule="evenodd" clip-rule="evenodd" d="M271.854 4.91146V4.56067C271.854 4.43699 271.915 4.375 272.036 4.375H277.476C277.584 4.375 277.638 4.43699 277.638 4.56067V4.91146C277.638 5.02153 277.584 5.07657 277.476 5.07657H275.101V18.6776C275.101 18.788 275.047 18.8427 274.939 18.8427H274.553C274.431 18.8427 274.37 18.788 274.37 18.6776V5.07657H272.016C271.908 5.07657 271.854 5.02153 271.854 4.91146" fill="#1D1D1B"/>
<path fill-rule="evenodd" clip-rule="evenodd" d="M283.809 11.7844H279.668V18.1412H283.992C284.099 18.1412 284.154 18.1965 284.154 18.3063V18.6779C284.154 18.788 284.099 18.843 283.992 18.843H279.1C278.991 18.843 278.938 18.788 278.938 18.6779V4.56067C278.938 4.43699 278.998 4.375 279.12 4.375H283.951C284.059 4.375 284.113 4.43699 284.113 4.56067V4.91146C284.113 5.02183 284.059 5.07657 283.951 5.07657H279.668V11.0828H283.809C283.93 11.0828 283.992 11.1376 283.992 11.2479V11.5987C283.992 11.7224 283.93 11.7844 283.809 11.7844" fill="#1D1D1B"/>
<path fill-rule="evenodd" clip-rule="evenodd" d="M294.201 11.8258H290.121V18.6779C290.121 18.788 290.067 18.843 289.959 18.843H289.553C289.444 18.843 289.391 18.788 289.391 18.6779V4.56098C289.391 4.43699 289.444 4.375 289.553 4.375H294.343C294.451 4.375 294.505 4.43699 294.505 4.56098V4.91176C294.505 5.02183 294.451 5.07687 294.343 5.07687H290.121V11.1243H294.201C294.323 11.1243 294.384 11.179 294.384 11.2894V11.6402C294.384 11.7638 294.323 11.8258 294.201 11.8258" fill="#1D1D1B"/>
<path fill-rule="evenodd" clip-rule="evenodd" d="M296.981 16.8097C297.468 17.8209 298.252 18.3269 299.335 18.3269C300.418 18.3269 301.203 17.8209 301.69 16.8097C302.177 15.7982 302.42 14.0685 302.42 11.619C302.42 9.16989 302.177 7.43623 301.69 6.41805C301.203 5.39987 300.418 4.89062 299.335 4.89062C298.252 4.89062 297.468 5.39987 296.981 6.41805C296.494 7.43623 296.25 9.16989 296.25 11.619C296.25 14.0685 296.494 15.7982 296.981 16.8097M299.336 4.21094C300.676 4.21094 301.653 4.77159 302.269 5.89319C302.885 7.01449 303.193 8.92354 303.193 11.6203C303.193 14.3032 302.885 16.2056 302.269 17.3269C301.653 18.4485 300.683 19.0092 299.357 19.0092C298.017 19.0092 297.039 18.4485 296.424 17.3269C295.808 16.2056 295.5 14.3032 295.5 11.6203C295.5 8.93715 295.808 7.03172 296.424 5.90347C297.039 4.77522 298.01 4.21094 299.336 4.21094" fill="#1D1D1B"/>
<path fill-rule="evenodd" clip-rule="evenodd" d="M305.607 12.7972H307.252C308.429 12.7972 309.251 12.522 309.718 11.9716C310.185 11.4213 310.418 10.4097 310.418 8.93735C310.418 7.43775 310.185 6.41957 309.718 5.88311C309.251 5.34635 308.388 5.07812 307.13 5.07812H305.607V12.7972ZM305.039 4.375H307.13C308.632 4.375 309.684 4.70885 310.286 5.37594C310.888 6.04364 311.19 7.23056 311.19 8.9361C311.19 10.4242 310.965 11.5092 310.517 12.1911C310.068 12.8733 309.328 13.2831 308.296 13.4207L310.934 18.6425C310.982 18.7762 310.946 18.843 310.826 18.843H310.405C310.298 18.843 310.225 18.7934 310.184 18.6933L307.536 13.4975H305.608V18.6779C305.608 18.788 305.553 18.843 305.445 18.843H305.039C304.931 18.843 304.877 18.788 304.877 18.6779V4.56098C304.877 4.43699 304.931 4.375 305.039 4.375V4.375Z" fill="#1D1D1B"/>
<path fill-rule="evenodd" clip-rule="evenodd" d="M315.777 4.91146V4.56067C315.777 4.43699 315.838 4.375 315.96 4.375H321.4C321.508 4.375 321.562 4.43699 321.562 4.56067V4.91146C321.562 5.02153 321.508 5.07657 321.4 5.07657H319.025V18.6776C319.025 18.788 318.971 18.8427 318.863 18.8427H318.477C318.355 18.8427 318.294 18.788 318.294 18.6776V5.07657H315.94C315.831 5.07657 315.777 5.02153 315.777 4.91146" fill="#1D1D1B"/>
<path fill-rule="evenodd" clip-rule="evenodd" d="M328.707 18.6779V11.7844H323.592V18.6779C323.592 18.788 323.537 18.843 323.43 18.843H323.024C322.915 18.843 322.861 18.788 322.861 18.6779V4.56067C322.861 4.43699 322.915 4.375 323.024 4.375H323.43C323.537 4.375 323.592 4.43699 323.592 4.56067V11.0828H328.707V4.56067C328.707 4.43699 328.761 4.375 328.869 4.375H329.255C329.377 4.375 329.438 4.43699 329.438 4.56067V18.6779C329.438 18.788 329.377 18.843 329.255 18.843H328.869C328.761 18.843 328.707 18.788 328.707 18.6779" fill="#1D1D1B"/>
<path fill-rule="evenodd" clip-rule="evenodd" d="M336.338 11.7844H332.197V18.1412H336.521C336.629 18.1412 336.683 18.1965 336.683 18.3063V18.6779C336.683 18.788 336.629 18.843 336.521 18.843H331.629C331.52 18.843 331.467 18.788 331.467 18.6779V4.56067C331.467 4.43699 331.528 4.375 331.649 4.375H336.48C336.588 4.375 336.643 4.43699 336.643 4.56067V4.91146C336.643 5.02183 336.588 5.07657 336.48 5.07657H332.197V11.0828H336.338C336.46 11.0828 336.521 11.1376 336.521 11.2479V11.5987C336.521 11.7224 336.46 11.7844 336.338 11.7844" fill="#1D1D1B"/>
<path fill-rule="evenodd" clip-rule="evenodd" d="M345.27 18.843H344.7C344.579 18.843 344.504 18.781 344.477 18.6574L341.25 4.58154C341.209 4.44425 341.249 4.375 341.37 4.375H341.793C341.9 4.375 341.961 4.4376 341.975 4.56188L344.135 14.2502L344.925 17.7949L345.025 17.7907L345.805 14.2656L347.955 4.55765C347.996 4.43578 348.065 4.375 348.162 4.375H348.576C348.713 4.375 348.761 4.44425 348.721 4.58184L345.493 18.6577C345.453 18.7813 345.378 18.843 345.27 18.843" fill="#1D1D1B"/>
<path fill-rule="evenodd" clip-rule="evenodd" d="M350.182 18.6779V4.56067C350.182 4.43699 350.242 4.375 350.364 4.375H350.75C350.858 4.375 350.912 4.43699 350.912 4.56067V18.6779C350.912 18.788 350.858 18.843 350.75 18.843H350.364C350.242 18.843 350.182 18.788 350.182 18.6779" fill="#1D1D1B"/>
<path fill-rule="evenodd" clip-rule="evenodd" d="M357.976 15.6036C357.976 17.9018 356.9 19.0503 354.749 19.0503C353.991 19.0503 353.341 18.9678 352.8 18.8026C352.678 18.7751 352.617 18.6995 352.617 18.5755V18.2662C352.617 18.1289 352.685 18.0736 352.82 18.1011C353.402 18.2662 354.031 18.3487 354.708 18.3487C356.4 18.3487 357.245 17.4279 357.245 15.5866C357.245 14.9821 357.123 14.4254 356.877 13.9171C356.632 13.4087 356.363 13.0202 356.073 12.7519C355.782 12.4837 355.381 12.113 354.87 11.6409C354.126 11.0219 353.554 10.4062 353.155 9.79385C352.756 9.18179 352.557 8.40764 352.557 7.47172C352.557 6.42632 352.79 5.62133 353.257 5.05705C353.724 4.49308 354.518 4.21094 355.642 4.21094C356.21 4.21094 356.765 4.28654 357.306 4.43804C357.428 4.47917 357.489 4.56172 357.489 4.68571V4.9748C357.489 5.11239 357.414 5.16743 357.266 5.13961C356.738 4.98841 356.196 4.91251 355.642 4.91251C354.776 4.91251 354.167 5.12993 353.815 5.56478C353.463 5.99933 353.287 6.6374 353.287 7.47897C353.287 8.27943 353.462 8.94531 353.811 9.47633C354.161 10.0079 354.671 10.5492 355.343 11.1011C355.901 11.6043 356.339 12.0005 356.659 12.2889C356.978 12.5774 357.277 13.0202 357.557 13.6174C357.836 14.2143 357.976 14.8766 357.976 15.6036" fill="#1D1D1B"/>
<path fill-rule="evenodd" clip-rule="evenodd" d="M365.312 18.0172C364.805 18.6779 363.963 19.0078 362.786 19.0078C361.608 19.0078 360.769 18.6779 360.268 18.0172C359.768 17.3567 359.518 16.2563 359.518 14.715V4.56067C359.518 4.43699 359.571 4.375 359.68 4.375H360.086C360.194 4.375 360.248 4.43699 360.248 4.56067V14.6533C360.248 16.0017 360.434 16.9512 360.806 17.5013C361.178 18.0516 361.838 18.3268 362.786 18.3268C363.746 18.3268 364.412 18.0516 364.785 17.5013C365.156 16.9512 365.343 16.0017 365.343 14.6533V4.56067C365.343 4.43699 365.397 4.375 365.505 4.375H365.891C366.013 4.375 366.074 4.43699 366.074 4.56067V14.715C366.074 16.2563 365.82 17.3567 365.312 18.0172" fill="#1D1D1B"/>
<path fill-rule="evenodd" clip-rule="evenodd" d="M369.166 13.7011H373.14L371.169 5.44531L371.136 5.44743L369.166 13.7011ZM370.882 4.375H371.403C371.524 4.375 371.598 4.4379 371.624 4.5637L375.034 18.6604C375.061 18.7822 375.015 18.843 374.896 18.843H374.523C374.418 18.843 374.353 18.7874 374.327 18.6749L373.303 14.385H369.003L367.979 18.677C367.952 18.788 367.891 18.843 367.797 18.843H367.393C367.272 18.843 367.224 18.781 367.252 18.6574L370.661 4.56098C370.688 4.43699 370.762 4.375 370.882 4.375V4.375Z" fill="#1D1D1B"/>
<path fill-rule="evenodd" clip-rule="evenodd" d="M377.116 4.56067V18.1412H381.094C381.216 18.1412 381.277 18.2028 381.277 18.3268V18.6779C381.277 18.788 381.216 18.8427 381.094 18.8427H376.547C376.439 18.8427 376.385 18.788 376.385 18.6779V4.56067C376.385 4.43699 376.439 4.375 376.547 4.375H376.953C377.061 4.375 377.116 4.43699 377.116 4.56067" fill="#1D1D1B"/>
<path fill-rule="evenodd" clip-rule="evenodd" d="M390.207 18.3073C390.802 18.3073 391.316 18.2384 391.75 18.1008C391.898 18.046 391.973 18.1008 391.973 18.2659V18.555C391.973 18.6654 391.912 18.741 391.79 18.7818C391.289 18.933 390.748 19.0089 390.166 19.0089C388.637 19.0089 387.555 18.4588 386.919 17.3578C386.282 16.2573 385.965 14.3447 385.965 11.6203C385.965 8.88241 386.279 6.96278 386.909 5.86204C387.538 4.76131 388.61 4.21094 390.126 4.21094C390.68 4.21094 391.195 4.28654 391.668 4.43804C391.79 4.47886 391.851 4.55477 391.851 4.66484V4.95393C391.851 5.11904 391.783 5.17408 391.648 5.11904C391.174 4.98176 390.68 4.91251 390.166 4.91251C388.881 4.91251 387.984 5.40451 387.477 6.38822C386.969 7.37223 386.716 9.11587 386.716 11.6203C386.716 14.1245 386.973 15.8651 387.487 16.8419C388.001 17.8192 388.908 18.3073 390.207 18.3073" fill="#1D1D1B"/>
<path fill-rule="evenodd" clip-rule="evenodd" d="M394.084 16.8097C394.571 17.8209 395.356 18.3269 396.439 18.3269C397.521 18.3269 398.306 17.8209 398.793 16.8097C399.281 15.7982 399.524 14.0685 399.524 11.619C399.524 9.16989 399.281 7.43623 398.793 6.41805C398.306 5.39987 397.521 4.89062 396.439 4.89062C395.356 4.89062 394.571 5.39987 394.084 6.41805C393.597 7.43623 393.354 9.16989 393.354 11.619C393.354 14.0685 393.597 15.7982 394.084 16.8097M396.44 4.21094C397.779 4.21094 398.757 4.77159 399.373 5.89319C399.988 7.01449 400.296 8.92354 400.296 11.6203C400.296 14.3032 399.988 16.2056 399.373 17.3269C398.757 18.4485 397.786 19.0092 396.46 19.0092C395.12 19.0092 394.142 18.4485 393.527 17.3269C392.911 16.2056 392.604 14.3032 392.604 11.6203C392.604 8.93715 392.911 7.03172 393.527 5.90347C394.142 4.77522 395.113 4.21094 396.44 4.21094" fill="#1D1D1B"/>
<path fill-rule="evenodd" clip-rule="evenodd" d="M405.964 14.3228C405.876 14.3228 405.815 14.2741 405.782 14.1761L402.711 6.21178V18.6776C402.711 18.788 402.65 18.8427 402.529 18.8427H402.143C402.034 18.8427 401.98 18.788 401.98 18.6776V4.56067C401.98 4.43699 402.034 4.375 402.143 4.375H402.549C402.643 4.375 402.711 4.41582 402.752 4.49717L406.004 12.9907L409.227 4.51924C409.267 4.42338 409.335 4.375 409.43 4.375H409.836C409.944 4.375 409.998 4.43699 409.998 4.56067V18.6776C409.998 18.788 409.944 18.8427 409.836 18.8427H409.45C409.341 18.8427 409.288 18.7871 409.288 18.6752V6.01854L406.129 14.1495C406.085 14.2653 406.03 14.3228 405.964 14.3228" fill="#1D1D1B"/>
<path fill-rule="evenodd" clip-rule="evenodd" d="M416.011 14.3228C415.923 14.3228 415.862 14.2741 415.829 14.1761L412.758 6.21178V18.6776C412.758 18.788 412.697 18.8427 412.576 18.8427H412.19C412.081 18.8427 412.027 18.788 412.027 18.6776V4.56067C412.027 4.43699 412.081 4.375 412.19 4.375H412.596C412.691 4.375 412.758 4.41582 412.799 4.49717L416.051 12.9907L419.274 4.51924C419.314 4.42338 419.382 4.375 419.477 4.375H419.883C419.991 4.375 420.045 4.43699 420.045 4.56067V18.6776C420.045 18.788 419.991 18.8427 419.883 18.8427H419.497C419.389 18.8427 419.335 18.7871 419.335 18.6752V6.01854L416.176 14.1495C416.132 14.2653 416.077 14.3228 416.011 14.3228" fill="#1D1D1B"/>
<path fill-rule="evenodd" clip-rule="evenodd" d="M427.809 18.0172C427.301 18.6779 426.459 19.0078 425.282 19.0078C424.104 19.0078 423.265 18.6779 422.765 18.0172C422.264 17.3567 422.014 16.2563 422.014 14.715V4.56067C422.014 4.43699 422.068 4.375 422.176 4.375H422.582C422.69 4.375 422.744 4.43699 422.744 4.56067V14.6533C422.744 16.0017 422.93 16.9512 423.303 17.5013C423.674 18.0516 424.334 18.3268 425.282 18.3268C426.242 18.3268 426.908 18.0516 427.281 17.5013C427.653 16.9512 427.839 16.0017 427.839 14.6533V4.56067C427.839 4.43699 427.893 4.375 428.001 4.375H428.387C428.509 4.375 428.57 4.43699 428.57 4.56067V14.715C428.57 16.2563 428.316 17.3567 427.809 18.0172" fill="#1D1D1B"/>
<path fill-rule="evenodd" clip-rule="evenodd" d="M437.298 4.56067V18.6779C437.298 18.788 437.244 18.8427 437.136 18.8427H436.75C436.628 18.8427 436.547 18.7701 436.507 18.625L431.27 6.10866V18.6779C431.27 18.788 431.209 18.8427 431.087 18.8427H430.702C430.593 18.8427 430.539 18.788 430.539 18.6779V4.56067C430.539 4.43699 430.593 4.375 430.702 4.375H431.087C431.209 4.375 431.29 4.4385 431.331 4.56491L436.588 17.1296V4.56067C436.588 4.43699 436.642 4.375 436.75 4.375H437.136C437.244 4.375 437.298 4.43699 437.298 4.56067" fill="#1D1D1B"/>
<path fill-rule="evenodd" clip-rule="evenodd" d="M439.43 18.6779V4.56067C439.43 4.43699 439.49 4.375 439.612 4.375H439.998C440.106 4.375 440.16 4.43699 440.16 4.56067V18.6779C440.16 18.788 440.106 18.843 439.998 18.843H439.612C439.49 18.843 439.43 18.788 439.43 18.6779" fill="#1D1D1B"/>
<path fill-rule="evenodd" clip-rule="evenodd" d="M446.187 18.3073C446.783 18.3073 447.297 18.2384 447.73 18.1008C447.879 18.046 447.953 18.1008 447.953 18.2659V18.555C447.953 18.6654 447.893 18.741 447.77 18.7818C447.27 18.933 446.728 19.0089 446.147 19.0089C444.618 19.0089 443.535 18.4588 442.899 17.3578C442.263 16.2573 441.945 14.3447 441.945 11.6203C441.945 8.88241 442.26 6.96278 442.889 5.86204C443.518 4.76131 444.591 4.21094 446.106 4.21094C446.661 4.21094 447.175 4.28654 447.649 4.43804C447.77 4.47886 447.832 4.55477 447.832 4.66484V4.95393C447.832 5.11904 447.764 5.17408 447.629 5.11904C447.155 4.98176 446.661 4.91251 446.147 4.91251C444.861 4.91251 443.965 5.40451 443.457 6.38822C442.95 7.37223 442.696 9.11587 442.696 11.6203C442.696 14.1245 442.953 15.8651 443.468 16.8419C443.982 17.8192 444.888 18.3073 446.187 18.3073" fill="#1D1D1B"/>
<path fill-rule="evenodd" clip-rule="evenodd" d="M450.822 13.7011H454.796L452.826 5.44531L452.792 5.44743L450.822 13.7011ZM452.538 4.375H453.06C453.18 4.375 453.254 4.4379 453.281 4.5637L456.69 18.6604C456.717 18.7822 456.671 18.843 456.553 18.843H456.179C456.074 18.843 456.009 18.7874 455.983 18.6749L454.959 14.385H450.659L449.635 18.677C449.608 18.788 449.547 18.843 449.453 18.843H449.049C448.928 18.843 448.881 18.781 448.908 18.6574L452.317 4.56098C452.344 4.43699 452.418 4.375 452.538 4.375V4.375Z" fill="#1D1D1B"/>
<path fill-rule="evenodd" clip-rule="evenodd" d="M456.195 4.91146V4.56067C456.195 4.43699 456.256 4.375 456.378 4.375H461.818C461.926 4.375 461.98 4.43699 461.98 4.56067V4.91146C461.98 5.02153 461.926 5.07657 461.818 5.07657H459.443V18.6776C459.443 18.788 459.389 18.8427 459.281 18.8427H458.895C458.773 18.8427 458.712 18.788 458.712 18.6776V5.07657H456.358C456.249 5.07657 456.195 5.02153 456.195 4.91146" fill="#1D1D1B"/>
<path fill-rule="evenodd" clip-rule="evenodd" d="M463.379 18.6779V4.56067C463.379 4.43699 463.44 4.375 463.562 4.375H463.947C464.055 4.375 464.11 4.43699 464.11 4.56067V18.6779C464.11 18.788 464.055 18.843 463.947 18.843H463.562C463.44 18.843 463.379 18.788 463.379 18.6779" fill="#1D1D1B"/>
<path fill-rule="evenodd" clip-rule="evenodd" d="M467.377 16.8098C467.864 17.821 468.649 18.3269 469.732 18.3269C470.814 18.3269 471.599 17.821 472.086 16.8098C472.574 15.7983 472.817 14.0685 472.817 11.6191C472.817 9.16995 472.574 7.43629 472.086 6.41811C471.599 5.39993 470.814 4.89069 469.732 4.89069C468.649 4.89069 467.864 5.39993 467.377 6.41811C466.89 7.43629 466.646 9.16995 466.646 11.6191C466.646 14.0685 466.89 15.7983 467.377 16.8098M469.733 4.211C471.072 4.211 472.05 4.77165 472.666 5.89325C473.281 7.01455 473.589 8.9236 473.589 11.6204C473.589 14.3033 473.281 16.2057 472.666 17.327C472.05 18.4486 471.079 19.0092 469.753 19.0092C468.413 19.0092 467.435 18.4486 466.82 17.327C466.204 16.2057 465.896 14.3033 465.896 11.6204C465.896 8.93721 466.204 7.03179 466.82 5.90353C467.435 4.77528 468.406 4.211 469.733 4.211" fill="#1D1D1B"/>
<path fill-rule="evenodd" clip-rule="evenodd" d="M482.033 4.56067V18.6779C482.033 18.788 481.978 18.8427 481.87 18.8427H481.485C481.363 18.8427 481.282 18.7701 481.241 18.625L476.004 6.10866V18.6779C476.004 18.788 475.943 18.8427 475.822 18.8427H475.436C475.327 18.8427 475.273 18.788 475.273 18.6779V4.56067C475.273 4.43699 475.327 4.375 475.436 4.375H475.822C475.943 4.375 476.025 4.4385 476.065 4.56491L481.322 17.1296V4.56067C481.322 4.43699 481.376 4.375 481.485 4.375H481.87C481.978 4.375 482.033 4.43699 482.033 4.56067" fill="#1D1D1B"/>
<path fill-rule="evenodd" clip-rule="evenodd" d="M487.777 18.6779V4.56067C487.777 4.43699 487.838 4.375 487.96 4.375H488.346C488.454 4.375 488.508 4.43699 488.508 4.56067V18.6779C488.508 18.788 488.454 18.843 488.346 18.843H487.96C487.838 18.843 487.777 18.788 487.777 18.6779" fill="#1D1D1B"/>
<path fill-rule="evenodd" clip-rule="evenodd" d="M497.398 4.56067V18.6779C497.398 18.788 497.344 18.8427 497.236 18.8427H496.85C496.728 18.8427 496.647 18.7701 496.607 18.625L491.37 6.10866V18.6779C491.37 18.788 491.308 18.8427 491.187 18.8427H490.801C490.693 18.8427 490.639 18.788 490.639 18.6779V4.56067C490.639 4.43699 490.693 4.375 490.801 4.375H491.187C491.308 4.375 491.39 4.4385 491.431 4.56491L496.688 17.1296V4.56067C496.688 4.43699 496.741 4.375 496.85 4.375H497.236C497.344 4.375 497.398 4.43699 497.398 4.56067" fill="#1D1D1B"/>
<path fill-rule="evenodd" clip-rule="evenodd" d="M501.863 5.07812H500.158V18.1427H501.863C502.702 18.1427 503.379 17.9607 503.893 17.596C504.407 17.2313 504.81 16.5636 505.101 15.5935C505.392 14.6237 505.537 13.2995 505.537 11.6209C505.537 9.94223 505.392 8.61439 505.101 7.63734C504.81 6.66058 504.407 5.98986 503.893 5.62517C503.379 5.26077 502.702 5.07812 501.863 5.07812M501.864 18.8427H499.59C499.482 18.8427 499.428 18.788 499.428 18.6779V4.56067C499.428 4.43699 499.489 4.375 499.61 4.375H501.864C502.865 4.375 503.676 4.58124 504.299 4.99432C504.921 5.40679 505.412 6.15341 505.771 7.23328C506.129 8.31376 506.309 9.77556 506.309 11.6193C506.309 13.0088 506.214 14.1785 506.025 15.1277C505.835 16.0773 505.54 16.8203 505.142 17.3567C504.742 17.8935 504.282 18.2751 503.761 18.5022C503.24 18.7293 502.607 18.8427 501.864 18.8427" fill="#1D1D1B"/>
<path fill-rule="evenodd" clip-rule="evenodd" d="M513.707 18.0172C513.2 18.6779 512.357 19.0078 511.18 19.0078C510.003 19.0078 509.164 18.6779 508.663 18.0172C508.162 17.3567 507.912 16.2563 507.912 14.715V4.56067C507.912 4.43699 507.966 4.375 508.074 4.375H508.481C508.589 4.375 508.643 4.43699 508.643 4.56067V14.6533C508.643 16.0017 508.829 16.9512 509.201 17.5013C509.573 18.0516 510.233 18.3268 511.18 18.3268C512.141 18.3268 512.807 18.0516 513.179 17.5013C513.551 16.9512 513.738 16.0017 513.738 14.6533V4.56067C513.738 4.43699 513.791 4.375 513.9 4.375H514.285C514.407 4.375 514.468 4.43699 514.468 4.56067V14.715C514.468 16.2563 514.215 17.3567 513.707 18.0172" fill="#1D1D1B"/>
<path fill-rule="evenodd" clip-rule="evenodd" d="M521.369 15.6036C521.369 17.9018 520.293 19.0503 518.142 19.0503C517.384 19.0503 516.734 18.9678 516.193 18.8026C516.071 18.7751 516.01 18.6995 516.01 18.5755V18.2662C516.01 18.1289 516.078 18.0736 516.213 18.1011C516.795 18.2662 517.424 18.3487 518.101 18.3487C519.792 18.3487 520.638 17.4279 520.638 15.5866C520.638 14.9821 520.516 14.4254 520.27 13.9171C520.025 13.4087 519.756 13.0202 519.466 12.7519C519.175 12.4837 518.774 12.113 518.263 11.6409C517.519 11.0219 516.947 10.4062 516.549 9.79385C516.149 9.18179 515.949 8.40764 515.949 7.47172C515.949 6.42632 516.183 5.62133 516.65 5.05705C517.116 4.49308 517.911 4.21094 519.035 4.21094C519.603 4.21094 520.158 4.28654 520.699 4.43804C520.821 4.47917 520.882 4.56172 520.882 4.68571V4.9748C520.882 5.11239 520.808 5.16743 520.658 5.13961C520.131 4.98841 519.589 4.91251 519.035 4.91251C518.169 4.91251 517.56 5.12993 517.208 5.56478C516.856 5.99933 516.68 6.6374 516.68 7.47897C516.68 8.27943 516.855 8.94531 517.204 9.47633C517.554 10.0079 518.064 10.5492 518.736 11.1011C519.294 11.6043 519.732 12.0005 520.052 12.2889C520.371 12.5774 520.67 13.0202 520.95 13.6174C521.229 14.2143 521.369 14.8766 521.369 15.6036" fill="#1D1D1B"/>
<path fill-rule="evenodd" clip-rule="evenodd" d="M521.896 4.91146V4.56067C521.896 4.43699 521.958 4.375 522.079 4.375H527.519C527.627 4.375 527.681 4.43699 527.681 4.56067V4.91146C527.681 5.02153 527.627 5.07657 527.519 5.07657H525.144V18.6776C525.144 18.788 525.09 18.8427 524.982 18.8427H524.596C524.474 18.8427 524.413 18.788 524.413 18.6776V5.07657H522.059C521.951 5.07657 521.896 5.02153 521.896 4.91146" fill="#1D1D1B"/>
<path fill-rule="evenodd" clip-rule="evenodd" d="M529.711 12.7972H531.355C532.532 12.7972 533.355 12.522 533.821 11.9716C534.288 11.4213 534.522 10.4097 534.522 8.93735C534.522 7.43775 534.288 6.41957 533.821 5.88311C533.355 5.34635 532.492 5.07812 531.233 5.07812H529.711V12.7972ZM529.143 4.375H531.233C532.735 4.375 533.787 4.70885 534.39 5.37594C534.992 6.04364 535.293 7.23056 535.293 8.9361C535.293 10.4242 535.069 11.5092 534.62 12.1911C534.172 12.8733 533.432 13.2831 532.399 13.4207L535.038 18.6425C535.086 18.7762 535.05 18.843 534.93 18.843H534.509C534.402 18.843 534.328 18.7934 534.288 18.6933L531.639 13.4975H529.711V18.6779C529.711 18.788 529.657 18.843 529.549 18.843H529.143C529.034 18.843 528.98 18.788 528.98 18.6779V4.56098C528.98 4.43699 529.034 4.375 529.143 4.375V4.375Z" fill="#1D1D1B"/>
<path fill-rule="evenodd" clip-rule="evenodd" d="M537.1 18.6779V4.56067C537.1 4.43699 537.161 4.375 537.282 4.375H537.668C537.776 4.375 537.831 4.43699 537.831 4.56067V18.6779C537.831 18.788 537.776 18.843 537.668 18.843H537.282C537.161 18.843 537.1 18.788 537.1 18.6779" fill="#1D1D1B"/>
<path fill-rule="evenodd" clip-rule="evenodd" d="M544.832 11.7844H540.692V18.1412H545.015C545.123 18.1412 545.177 18.1965 545.177 18.3063V18.6779C545.177 18.788 545.123 18.843 545.015 18.843H540.123C540.014 18.843 539.961 18.788 539.961 18.6779V4.56067C539.961 4.43699 540.022 4.375 540.143 4.375H544.974C545.082 4.375 545.137 4.43699 545.137 4.56067V4.91146C545.137 5.02183 545.082 5.07657 544.974 5.07657H540.692V11.0828H544.832C544.954 11.0828 545.015 11.1376 545.015 11.2479V11.5987C545.015 11.7224 544.954 11.7844 544.832 11.7844" fill="#1D1D1B"/>
<path fill-rule="evenodd" clip-rule="evenodd" d="M551.734 15.6036C551.734 17.9018 550.658 19.0503 548.507 19.0503C547.748 19.0503 547.099 18.9678 546.558 18.8026C546.436 18.7751 546.375 18.6995 546.375 18.5755V18.2662C546.375 18.1289 546.443 18.0736 546.578 18.1011C547.16 18.2662 547.789 18.3487 548.466 18.3487C550.157 18.3487 551.003 17.4279 551.003 15.5866C551.003 14.9821 550.88 14.4254 550.635 13.9171C550.39 13.4087 550.121 13.0202 549.831 12.7519C549.54 12.4837 549.139 12.113 548.628 11.6409C547.884 11.0219 547.312 10.4062 546.913 9.79385C546.514 9.18179 546.314 8.40764 546.314 7.47172C546.314 6.42632 546.548 5.62133 547.015 5.05705C547.481 4.49308 548.276 4.21094 549.4 4.21094C549.968 4.21094 550.523 4.28654 551.064 4.43804C551.186 4.47917 551.247 4.56172 551.247 4.68571V4.9748C551.247 5.11239 551.172 5.16743 551.023 5.13961C550.496 4.98841 549.954 4.91251 549.4 4.91251C548.533 4.91251 547.924 5.12993 547.573 5.56478C547.221 5.99933 547.045 6.6374 547.045 7.47897C547.045 8.27943 547.22 8.94531 547.569 9.47633C547.919 10.0079 548.429 10.5492 549.101 11.1011C549.658 11.6043 550.097 12.0005 550.417 12.2889C550.736 12.5774 551.035 13.0202 551.315 13.6174C551.594 14.2143 551.734 14.8766 551.734 15.6036" fill="#1D1D1B"/>
<mask id="mask0_1169_2" style="mask-type:luminance" maskUnits="userSpaceOnUse" x="0" y="0" width="219" height="78">
<path fill-rule="evenodd" clip-rule="evenodd" d="M121.318 0C100.812 0 89.2578 11.1655 89.2578 29.2182V29.2182V48.0018C89.2578 66.0544 100.812 77.2203 121.318 77.2203V77.2203C141.823 77.2203 153.273 66.0544 153.273 51.3409V51.3409V37.5662C153.273 34.2271 152.233 33.0795 148.902 33.0795V33.0795H122.567C119.34 33.0795 118.195 34.2271 118.195 37.5662V37.5662V45.393C118.195 48.7321 119.34 49.7753 122.567 49.7753V49.7753H132.56V51.8625C132.56 56.3495 128.292 58.9586 121.318 58.9586V58.9586C113.094 58.9586 109.868 55.4103 109.868 48.1058V48.1058V29.1142C109.868 21.8094 113.094 18.2616 121.318 18.2616V18.2616C127.147 18.2616 130.27 20.3485 132.143 25.0442V25.0442C133.288 28.2789 134.537 28.9055 137.764 27.8622V27.8622L148.902 23.8966C152.024 22.853 152.753 21.2877 151.712 18.2616V18.2616C147.34 6.57387 137.347 0 121.318 0ZM31.5957 0C11.7144 0 0.680473 9.62509 0.680473 23.436V23.436C0.680473 43.7322 17.7516 45.9297 29.9301 47.6038V47.6038C36.8 48.5458 42.1087 49.6961 42.1087 53.7767V53.7767C42.1087 58.2755 37.9452 59.74 30.971 59.74V59.74C25.1419 59.74 21.0825 57.8567 19.2088 54.1949V54.1949C17.6475 51.1609 16.1903 50.8467 13.0674 51.8931V51.8931L3.28293 55.4505C0.264068 56.6011 -0.672767 58.0659 0.472422 61.2046V61.2046C4.42812 72.0852 15.2534 77.4214 30.7629 77.4214V77.4214C49.1866 77.4214 63.0311 68.9466 63.0311 53.5668V53.5668C63.0311 33.7932 47.417 30.8639 35.3428 29.1901V29.1901C27.8484 28.2484 21.7066 27.3067 21.7066 22.8082V22.8082C21.7066 19.1465 24.5178 17.3677 31.5957 17.3677V17.3677C36.3836 17.3677 40.1316 18.8323 42.1087 22.8082V22.8082C43.7743 25.8425 44.9192 26.2601 47.7297 25.0052V25.0052L58.1389 20.506C61.2615 19.2511 62.0943 17.6816 60.637 14.6473V14.6473C55.7445 4.60313 47.0006 0 31.5957 0ZM203.756 1.58594C200.425 1.58594 199.384 2.75048 199.384 6.03152V6.03152V19.162L199.336 38.4606L184.216 14.47L184.222 14.4975L177.421 3.70274C176.484 2.22128 175.444 1.58594 173.049 1.58594V1.58594H160.767C157.436 1.58594 156.291 2.75048 156.291 6.03152V6.03152V72.2883C156.291 73.9037 156.57 75.0038 157.25 75.7072V75.7072H174.796C175.476 75.0038 175.756 73.9037 175.756 72.2883V72.2883V55.036C175.756 53.9008 175.744 52.8267 175.721 51.7998V51.7998L175.699 39.6197L186.55 56.1619L198.344 74.6174C198.619 75.0525 198.913 75.4127 199.245 75.7072V75.7072H208.391L218.745 47.8701V6.03152C218.745 2.75048 217.6 1.58594 214.373 1.58594V1.58594H203.756ZM69.2734 1.58594C66.1505 1.58594 65.1094 2.64434 65.1094 5.82014V5.82014V72.5003C65.1094 74.0132 65.3504 75.0413 65.9352 75.7072V75.7072H84.8939C85.4793 75.0413 85.7194 74.0132 85.7194 72.5003V72.5003V5.82014C85.7194 2.64434 84.6786 1.58594 81.556 1.58594V1.58594H69.2734Z" fill="white"/>
</mask>
<g mask="url(#mask0_1169_2)">
<path fill-rule="evenodd" clip-rule="evenodd" d="M121.318 0C100.812 0 89.2578 11.1655 89.2578 29.2182V29.2182V48.0018C89.2578 66.0544 100.812 77.2203 121.318 77.2203V77.2203C141.823 77.2203 153.273 66.0544 153.273 51.3409V51.3409V37.5662C153.273 34.2271 152.233 33.0795 148.902 33.0795V33.0795H122.567C119.34 33.0795 118.195 34.2271 118.195 37.5662V37.5662V45.393C118.195 48.7321 119.34 49.7753 122.567 49.7753V49.7753H132.56V51.8625C132.56 56.3495 128.292 58.9586 121.318 58.9586V58.9586C113.094 58.9586 109.868 55.4103 109.868 48.1058V48.1058V29.1142C109.868 21.8094 113.094 18.2616 121.318 18.2616V18.2616C127.147 18.2616 130.27 20.3485 132.143 25.0442V25.0442C133.288 28.2789 134.537 28.9055 137.764 27.8622V27.8622L148.902 23.8966C152.024 22.853 152.753 21.2877 151.712 18.2616V18.2616C147.34 6.57387 137.347 0 121.318 0ZM31.5957 0C11.7144 0 0.680473 9.62509 0.680473 23.436V23.436C0.680473 43.7322 17.7516 45.9297 29.9301 47.6038V47.6038C36.8 48.5458 42.1087 49.6961 42.1087 53.7767V53.7767C42.1087 58.2755 37.9452 59.74 30.971 59.74V59.74C25.1419 59.74 21.0825 57.8567 19.2088 54.1949V54.1949C17.6475 51.1609 16.1903 50.8467 13.0674 51.8931V51.8931L3.28293 55.4505C0.264068 56.6011 -0.672767 58.0659 0.472422 61.2046V61.2046C4.42812 72.0852 15.2534 77.4214 30.7629 77.4214V77.4214C49.1866 77.4214 63.0311 68.9466 63.0311 53.5668V53.5668C63.0311 33.7932 47.417 30.8639 35.3428 29.1901V29.1901C27.8484 28.2484 21.7066 27.3067 21.7066 22.8082V22.8082C21.7066 19.1465 24.5178 17.3677 31.5957 17.3677V17.3677C36.3836 17.3677 40.1316 18.8323 42.1087 22.8082V22.8082C43.7743 25.8425 44.9192 26.2601 47.7297 25.0052V25.0052L58.1389 20.506C61.2615 19.2511 62.0943 17.6816 60.637 14.6473V14.6473C55.7445 4.60313 47.0006 0 31.5957 0ZM203.756 1.58594C200.425 1.58594 199.384 2.75048 199.384 6.03152V6.03152V19.162L199.336 38.4606L184.216 14.47L184.222 14.4975L177.421 3.70274C176.484 2.22128 175.444 1.58594 173.049 1.58594V1.58594H160.767C157.436 1.58594 156.291 2.75048 156.291 6.03152V6.03152V72.2883C156.291 73.9037 156.57 75.0038 157.25 75.7072V75.7072H174.796C175.476 75.0038 175.756 73.9037 175.756 72.2883V72.2883V55.036C175.756 53.9008 175.744 52.8267 175.721 51.7998V51.7998L175.699 39.6197L186.55 56.1619L198.344 74.6174C198.619 75.0525 198.913 75.4127 199.245 75.7072V75.7072H208.391L218.745 47.8701V6.03152C218.745 2.75048 217.6 1.58594 214.373 1.58594V1.58594H203.756ZM69.2734 1.58594C66.1505 1.58594 65.1094 2.64434 65.1094 5.82014V5.82014V72.5003C65.1094 74.0132 65.3504 75.0413 65.9352 75.7072V75.7072H84.8939C85.4793 75.0413 85.7194 74.0132 85.7194 72.5003V72.5003V5.82014C85.7194 2.64434 84.6786 1.58594 81.556 1.58594V1.58594H69.2734Z" fill="#EC4624"/>
</g>
<path fill-rule="evenodd" clip-rule="evenodd" d="M420.092 56.5588V75.1748C420.092 93.0654 431.646 104.131 452.152 104.131C468.182 104.131 478.174 97.6159 482.546 86.0334C483.587 83.0336 482.858 81.4829 479.735 80.4484L468.597 76.5184C465.475 75.3814 464.226 76.1053 462.977 79.3114C461.312 83.7578 457.981 86.0334 452.152 86.0334C443.928 86.0334 440.702 82.5168 440.702 75.2773V56.4554C440.702 49.2162 443.928 45.6999 452.152 45.6999C457.981 45.6999 461.104 47.7683 462.977 52.4216C464.122 55.628 465.371 56.1451 468.597 55.2146L479.735 51.2846C482.858 50.2504 483.587 48.6994 482.546 45.6999C478.174 34.1174 468.182 27.6016 452.152 27.6016C431.646 27.6016 420.092 38.6676 420.092 56.5588V56.5588ZM235.145 75.4085H248.156L241.634 54.3203L235.145 75.4085ZM206.202 102.361C206.082 101.685 206.237 100.815 206.623 99.7538L230.564 32.6503C231.605 29.581 232.959 28.9453 235.977 28.9453H247.844C250.862 28.9453 252.215 29.6868 253.256 32.4383L277.301 99.7538C277.687 100.815 277.8 101.685 277.631 102.361H256.516C255.909 101.69 255.526 100.8 255.234 99.6479L252.84 92.0272H230.356L227.962 99.6479C227.597 100.8 227.192 101.69 226.597 102.361H206.202ZM352.971 61.4402H364.213C368.585 61.4402 371.083 58.6878 371.083 54.3484C371.083 50.1147 368.689 47.4688 364.213 47.4688H352.971V61.4402ZM332.835 102.361C332.507 101.689 332.361 100.802 332.361 99.6479V33.3912C332.361 30.1102 333.506 28.9453 336.837 28.9453H366.503C382.221 28.9453 392.416 38.0482 392.416 54.4534C392.416 64.826 388.255 72.2348 381.18 76.257C382.221 77.6329 383.157 79.115 383.99 80.8081L393.351 98.9074C394.027 100.234 394.225 101.442 393.908 102.361H372.285C371.258 101.566 370.489 100.471 369.834 99.0132L363.172 84.5125C361.402 80.914 359.633 79.115 355.365 79.115H352.971V99.6479C352.971 100.802 352.838 101.689 352.526 102.361H332.835ZM297.88 102.361C298.192 101.689 298.325 100.802 298.325 99.6479V78.268H320.288C323.619 78.268 324.764 77.1037 324.764 73.7165V64.1909C324.764 60.9102 323.619 59.746 320.288 59.746H298.325V47.4679H325.805C329.136 47.4679 330.28 46.304 330.28 42.9168V33.3912C330.28 30.1102 329.136 28.9453 325.805 28.9453H282.191C278.86 28.9453 277.715 30.1102 277.715 33.3912V99.6479C277.715 100.802 277.861 101.689 278.189 102.361H297.88ZM507.111 75.4085H520.123L513.643 54.3203L507.111 75.4085ZM478.169 102.361C478.048 101.685 478.204 100.815 478.59 99.7538L502.531 32.6503C503.572 29.581 504.925 28.9453 507.944 28.9453H519.81C522.829 28.9453 524.182 29.6868 525.223 32.4383L549.268 99.7538C549.654 100.815 549.767 101.685 549.598 102.361H528.483C527.876 101.69 527.493 100.8 527.201 99.6479L524.806 92.0272H502.323L499.929 99.6479C499.564 100.8 499.159 101.69 498.563 102.361H478.169ZM396.335 102.361C396.066 101.734 395.947 100.917 395.947 99.8599V33.1795C395.947 30.0037 396.987 28.9453 400.108 28.9453H412.39C415.512 28.9453 416.554 30.0037 416.554 33.1795V99.8599C416.554 100.917 416.435 101.734 416.166 102.361H396.335Z" fill="black"/>
<path fill-rule="evenodd" clip-rule="evenodd" d="M8.78058 88.6797H10.1692C10.432 88.6797 10.5977 88.8103 10.6663 89.0713L11.924 95.2759L12.5352 98.2918L12.6096 98.2872L13.1651 95.2784L14.4134 89.0668C14.4593 88.8088 14.6154 88.6797 14.8815 88.6797H16.4419C16.7192 88.6797 16.829 88.8327 16.7712 89.1393L14.1754 100.629C14.1058 100.921 13.9326 101.067 13.6547 101.067H11.7976C11.52 101.067 11.3461 100.921 11.2769 100.628L10.1202 95.3159L9.49455 92.4452L9.44828 92.4425L8.83289 95.3307L7.70313 100.625C7.63418 100.92 7.45576 101.067 7.16879 101.067H5.34017C5.06408 101.067 4.88597 100.921 4.80523 100.628L2.22666 89.1372C2.15741 88.8324 2.25479 88.6797 2.51878 88.6797H3.99722C4.21373 88.6797 4.35435 88.82 4.41937 89.1L5.67221 95.3137L6.34898 98.2872H6.4146L7.0315 95.2711L8.30067 89.0668C8.33454 88.8088 8.49481 88.6797 8.78058 88.6797" fill="#1D1D1B"/>
<path fill-rule="evenodd" clip-rule="evenodd" d="M24.511 88.6797H25.8997C26.1625 88.6797 26.3282 88.8103 26.3968 89.0713L27.6545 95.2759L28.2656 98.2918L28.34 98.2872L28.8955 95.2784L30.1439 89.0668C30.1898 88.8088 30.3459 88.6797 30.612 88.6797H32.1724C32.4497 88.6797 32.5594 88.8327 32.5017 89.1393L29.9059 100.629C29.8363 100.921 29.663 101.067 29.3851 101.067H27.5281C27.2505 101.067 27.0766 100.921 27.0074 100.628L25.8507 95.3159L25.225 92.4452L25.1787 92.4425L24.5634 95.3307L23.4336 100.625C23.3646 100.92 23.1862 101.067 22.8993 101.067H21.0706C20.7946 101.067 20.6164 100.921 20.5357 100.628L17.9571 89.1372C17.8879 88.8324 17.9853 88.6797 18.2493 88.6797H19.7277C19.9442 88.6797 20.0848 88.82 20.1498 89.1L21.4027 95.3137L22.0794 98.2872H22.1451L22.762 95.2711L24.0311 89.0668C24.065 88.8088 24.2253 88.6797 24.511 88.6797" fill="#1D1D1B"/>
<path fill-rule="evenodd" clip-rule="evenodd" d="M40.2397 88.6797H41.6283C41.8911 88.6797 42.0565 88.8103 42.1252 89.0713L43.3832 95.2759L43.9943 98.2918L44.0687 98.2872L44.6239 95.2784L45.8725 89.0668C45.9185 88.8088 46.0745 88.6797 46.3403 88.6797H47.9007C48.178 88.6797 48.2878 88.8327 48.2303 89.1393L45.6345 100.629C45.5647 100.921 45.3914 101.067 45.1135 101.067H43.2568C42.9789 101.067 42.805 100.921 42.7357 100.628L41.5793 95.3159L40.9537 92.4452L40.9071 92.4425L40.2917 95.3307L39.1623 100.625C39.0933 100.92 38.9149 101.067 38.6276 101.067H36.7993C36.5229 101.067 36.3451 100.921 36.2644 100.628L33.6855 89.1372C33.6165 88.8324 33.7139 88.6797 33.9779 88.6797H35.4564C35.6726 88.6797 35.8135 88.82 35.8785 89.1L37.131 95.3137L37.8081 98.2872H37.8734L38.4903 95.2711L39.7595 89.0668C39.7937 88.8088 39.9539 88.6797 40.2397 88.6797" fill="#1D1D1B"/>
<path fill-rule="evenodd" clip-rule="evenodd" d="M48.6895 100.66V99.0589C48.6895 98.801 48.8216 98.6719 49.0874 98.6719H50.5063C50.7715 98.6719 50.9042 98.801 50.9042 99.0589V100.66C50.9042 100.93 50.7772 101.065 50.5235 101.065H49.0702C48.8162 101.065 48.6895 100.93 48.6895 100.66" fill="#1D1D1B"/>
<path fill-rule="evenodd" clip-rule="evenodd" d="M59.7816 97.8104C59.7816 98.9604 59.4154 99.8165 58.6829 100.379C57.9499 100.942 56.9665 101.224 55.7321 101.224C54.5092 101.224 53.5461 101.071 52.8424 100.766C52.5657 100.65 52.4502 100.479 52.4961 100.256L52.7562 99.1301C52.8134 98.8249 52.9863 98.7315 53.2751 98.8488C53.9325 99.095 54.6359 99.2181 55.3862 99.2181C56.7821 99.2181 57.4803 98.7382 57.4803 97.7786C57.4803 97.3456 57.33 96.9854 57.0291 96.6988C56.7285 96.4121 56.2196 96.0698 55.5029 95.6718C55.0795 95.4127 54.7176 95.191 54.4176 95.0071C54.1176 94.8233 53.817 94.5786 53.5173 94.2738C53.2174 93.9687 52.9924 93.611 52.8424 93.2003C52.6924 92.7896 52.6174 92.3264 52.6174 91.8102C52.6174 90.6958 52.9316 89.863 53.5606 89.3117C54.1893 88.7602 55.1612 88.4844 56.4763 88.4844C57.3993 88.4844 58.2357 88.6253 58.9856 88.9068C59.2623 89.0124 59.3721 89.1769 59.3144 89.3997L59.0552 90.5083C58.9971 90.7896 58.8242 90.8836 58.536 90.7896C57.982 90.6021 57.3702 90.5083 56.7013 90.5083C56.0784 90.5083 55.6257 90.6136 55.3429 90.8243C55.0602 91.0354 54.919 91.3753 54.919 91.8437C54.919 92.2659 55.075 92.626 55.3868 92.9248C55.6986 93.2236 56.1718 93.549 56.8075 93.9001C57.3094 94.2142 57.7011 94.4589 57.982 94.6343C58.2626 94.8097 58.5638 95.0534 58.8856 95.3652C59.2073 95.677 59.4368 96.0332 59.5747 96.4333C59.7126 96.8336 59.7816 97.2924 59.7816 97.8104" fill="#1D1D1B"/>
<path fill-rule="evenodd" clip-rule="evenodd" d="M61.6504 100.645V89.0843C61.6504 88.8146 61.7825 88.6797 62.048 88.6797H63.5192C63.7844 88.6797 63.9172 88.8146 63.9172 89.0843V100.645C63.9172 100.927 63.7844 101.067 63.5192 101.067H62.048C61.7825 101.067 61.6504 100.927 61.6504 100.645" fill="#1D1D1B"/>
<path fill-rule="evenodd" clip-rule="evenodd" d="M70.9253 93.6575H74.0572C74.3342 93.6575 74.4724 93.7924 74.4724 94.0624V99.9393C74.4724 100.221 74.3457 100.432 74.092 100.573C73.365 101.019 72.3154 101.241 70.9425 101.241C69.2466 101.241 67.989 100.752 67.1701 99.7724C66.3509 98.7929 65.9414 97.1536 65.9414 94.8541C65.9414 92.5668 66.3623 90.9332 67.2045 89.9537C68.0464 88.9743 69.3619 88.4844 71.1502 88.4844C72.0959 88.4844 72.9786 88.6664 73.7978 89.0296C74.0745 89.159 74.1842 89.329 74.1265 89.5401L73.8498 90.6311C73.7802 90.9126 73.5958 91.0006 73.2961 90.8948C72.6039 90.6722 71.9806 90.5607 71.4269 90.5607C70.2385 90.5607 69.4108 90.8715 68.9436 91.4933C68.4764 92.115 68.243 93.2354 68.243 94.8541C68.243 96.4732 68.4677 97.602 68.9176 98.2413C69.3679 98.8806 70.1172 99.2002 71.1675 99.2002C71.6057 99.2002 72.0094 99.1301 72.3789 98.9891V95.5227H70.9253C70.6483 95.5227 70.5101 95.3882 70.5101 95.1181V94.0624C70.5101 93.7924 70.6483 93.6575 70.9253 93.6575" fill="#1D1D1B"/>
<path fill-rule="evenodd" clip-rule="evenodd" d="M84.9595 89.0668V100.645C84.9595 100.927 84.821 101.067 84.544 101.067H83.1596C82.9059 101.067 82.7329 100.944 82.6404 100.698L78.7815 92.9553V100.645C78.7815 100.927 78.649 101.067 78.3835 101.067H76.9816C76.7049 101.067 76.5664 100.927 76.5664 100.645V89.0843C76.5664 88.8146 76.7049 88.6797 76.9816 88.6797H78.366C78.62 88.6797 78.793 88.8028 78.8852 89.0489L82.7444 96.7913V89.0843C82.7444 88.8146 82.8769 88.6797 83.1424 88.6797H84.544C84.821 88.6797 84.9595 88.8085 84.9595 89.0668" fill="#1D1D1B"/>
<path fill-rule="evenodd" clip-rule="evenodd" d="M89.8574 96.3335H92.5225L91.2246 90.9844H91.1898L89.8574 96.3335ZM90.0922 88.6797H92.2568C92.5703 88.6797 92.7648 88.8046 92.8401 89.0535L96.0071 100.579C96.0416 100.717 96.0292 100.833 95.9699 100.927C95.9103 101.021 95.8087 101.067 95.6645 101.067H94.0775C93.825 101.067 93.6626 100.937 93.5906 100.677L93.0161 98.3402H89.3821L88.8266 100.677C88.7531 100.937 88.5874 101.067 88.3295 101.067H86.6917C86.5565 101.067 86.4561 101.019 86.3893 100.923C86.3234 100.826 86.3073 100.707 86.3421 100.565L89.5088 89.0395C89.5841 88.7997 89.7786 88.6797 90.0922 88.6797V88.6797Z" fill="#1D1D1B"/>
<path fill-rule="evenodd" clip-rule="evenodd" d="M103.442 95.9996H99.7043V100.645C99.7043 100.927 99.5661 101.067 99.2891 101.067H97.8699C97.5814 101.067 97.4375 100.927 97.4375 100.645V89.0843C97.4375 88.8146 97.5814 88.6797 97.8699 88.6797H103.598C103.864 88.6797 103.996 88.8088 103.996 89.0668V90.2984C103.996 90.58 103.864 90.7209 103.598 90.7209H99.7043V93.9935H103.442C103.719 93.9935 103.857 94.1344 103.857 94.4159V95.5947C103.857 95.865 103.719 95.9996 103.442 95.9996" fill="#1D1D1B"/>
<path fill-rule="evenodd" clip-rule="evenodd" d="M107.994 94.9947H109.344C110.151 94.9947 110.711 94.8335 111.023 94.5105C111.334 94.1882 111.49 93.6399 111.49 92.8655C111.49 92.056 111.331 91.4962 111.014 91.1851C110.697 90.8745 110.134 90.7188 109.327 90.7188H107.994V94.9947ZM106.142 88.6797H109.361C110.918 88.6797 112.046 88.9996 112.744 89.6386C113.442 90.2782 113.791 91.3544 113.791 92.8676C113.791 94.9451 112.977 96.2007 111.348 96.6349L113.684 100.559C113.764 100.688 113.785 100.804 113.745 100.91C113.704 101.015 113.603 101.067 113.442 101.067H111.889C111.647 101.067 111.457 100.955 111.319 100.732L109.119 96.9676H107.994V100.645C107.994 100.927 107.861 101.067 107.596 101.067H106.142C105.865 101.067 105.727 100.927 105.727 100.645V89.0843C105.727 88.8149 105.865 88.6797 106.142 88.6797V88.6797Z" fill="#1D1D1B"/>
<path fill-rule="evenodd" clip-rule="evenodd" d="M115.764 100.645V89.0843C115.764 88.8146 115.896 88.6797 116.161 88.6797H117.633C117.898 88.6797 118.03 88.8146 118.03 89.0843V100.645C118.03 100.927 117.898 101.067 117.633 101.067H116.161C115.896 101.067 115.764 100.927 115.764 100.645" fill="#1D1D1B"/>
<path fill-rule="evenodd" clip-rule="evenodd" d="M125.264 99.1651C125.806 99.1651 126.336 99.0596 126.856 98.8485C127.133 98.7548 127.306 98.8485 127.375 99.1301L127.687 100.221C127.744 100.432 127.635 100.602 127.358 100.731C126.607 101.071 125.783 101.241 124.883 101.241C123.256 101.241 122.045 100.743 121.249 99.7458C120.453 98.749 120.055 97.1182 120.055 94.8541C120.055 92.6019 120.447 90.9774 121.232 89.98C122.016 88.983 123.21 88.4844 124.814 88.4844C125.794 88.4844 126.607 88.6489 127.254 88.9773C127.519 89.1061 127.623 89.2764 127.565 89.4874L127.288 90.5782C127.219 90.8482 127.04 90.9362 126.752 90.8425C126.29 90.6547 125.771 90.5607 125.195 90.5607C124.179 90.5607 123.452 90.8806 123.014 91.5199C122.575 92.1591 122.357 93.2705 122.357 94.8541C122.357 96.4499 122.578 97.567 123.023 98.2062C123.467 98.8455 124.214 99.1651 125.264 99.1651" fill="#1D1D1B"/>
<path fill-rule="evenodd" clip-rule="evenodd" d="M132.201 96.3335H134.866L133.568 90.9844H133.534L132.201 96.3335ZM132.436 88.6797H134.601C134.914 88.6797 135.109 88.8046 135.184 89.0535L138.351 100.579C138.385 100.717 138.373 100.833 138.313 100.927C138.254 101.021 138.153 101.067 138.008 101.067H136.421C136.169 101.067 136.006 100.937 135.934 100.677L135.36 98.3402H131.726L131.17 100.677C131.097 100.937 130.931 101.067 130.673 101.067H129.035C128.901 101.067 128.8 101.019 128.733 100.923C128.667 100.826 128.651 100.707 128.686 100.565L131.853 89.0395C131.928 88.7997 132.122 88.6797 132.436 88.6797V88.6797Z" fill="#1D1D1B"/>
<path fill-rule="evenodd" clip-rule="evenodd" d="M139.781 100.66V99.0589C139.781 98.801 139.914 98.6719 140.179 98.6719H141.598C141.864 98.6719 141.996 98.801 141.996 99.0589V100.66C141.996 100.93 141.869 101.065 141.616 101.065H140.162C139.908 101.065 139.781 100.93 139.781 100.66" fill="#1D1D1B"/>
<path fill-rule="evenodd" clip-rule="evenodd" d="M148.64 99.1651C149.183 99.1651 149.714 99.0596 150.233 98.8485C150.51 98.7548 150.683 98.8485 150.752 99.1301L151.063 100.221C151.121 100.432 151.011 100.602 150.735 100.731C149.984 101.071 149.16 101.241 148.26 101.241C146.633 101.241 145.422 100.743 144.626 99.7458C143.83 98.749 143.432 97.1182 143.432 94.8541C143.432 92.6019 143.824 90.9774 144.609 89.98C145.393 88.983 146.587 88.4844 148.191 88.4844C149.171 88.4844 149.984 88.6489 150.631 88.9773C150.896 89.1061 151 89.2764 150.942 89.4874L150.665 90.5782C150.596 90.8482 150.417 90.9362 150.129 90.8425C149.667 90.6547 149.148 90.5607 148.571 90.5607C147.556 90.5607 146.829 90.8806 146.391 91.5199C145.952 92.1591 145.734 93.2705 145.734 94.8541C145.734 96.4499 145.955 97.567 146.4 98.2062C146.844 98.8455 147.591 99.1651 148.64 99.1651" fill="#1D1D1B"/>
<path fill-rule="evenodd" clip-rule="evenodd" d="M154.767 98.2132C155.125 98.8703 155.69 99.1984 156.463 99.1984C157.235 99.1984 157.801 98.8703 158.159 98.2132C158.516 97.5561 158.695 96.442 158.695 94.8698C158.695 93.298 158.516 92.1806 158.159 91.5177C157.801 90.8552 157.235 90.5234 156.463 90.5234C155.69 90.5234 155.125 90.8552 154.767 91.5177C154.409 92.1806 154.23 93.298 154.23 94.8698C154.23 96.442 154.409 97.5561 154.767 98.2132M153.063 89.9891C153.83 88.9861 154.963 88.4844 156.463 88.4844C157.963 88.4844 159.096 88.9861 159.864 89.9891C160.631 90.9919 161.014 92.6197 161.014 94.872C161.014 97.1128 160.634 98.7342 159.872 99.7373C159.111 100.74 157.974 101.242 156.463 101.242C154.952 101.242 153.816 100.74 153.054 99.7373C152.293 98.7342 151.912 97.1128 151.912 94.872C151.912 92.6197 152.295 90.9919 153.063 89.9891" fill="#1D1D1B"/>
<path fill-rule="evenodd" clip-rule="evenodd" d="M167.911 97.9177C167.725 97.9177 167.598 97.8373 167.528 97.6764L165.15 92.8325V100.645C165.15 100.927 165.018 101.067 164.753 101.067H163.333C163.056 101.067 162.918 100.927 162.918 100.645V89.0843C162.918 88.8146 163.056 88.6797 163.333 88.6797H164.701C164.931 88.6797 165.093 88.7822 165.185 88.9872L167.908 94.4909L170.653 88.9437C170.746 88.7677 170.913 88.6797 171.155 88.6797H172.505C172.782 88.6797 172.92 88.8146 172.92 89.0843V100.645C172.92 100.927 172.782 101.067 172.505 101.067H171.086C170.821 101.067 170.688 100.926 170.688 100.643V92.789L168.293 97.6676C168.223 97.8345 168.096 97.9177 167.911 97.9177" fill="#1D1D1B"/>
<mask id="mask1_1169_2" style="mask-type:luminance" maskUnits="userSpaceOnUse" x="546" y="19" width="86" height="85">
<path fill-rule="evenodd" clip-rule="evenodd" d="M546.486 19.25H631.236V103.999H546.486V19.25Z" fill="white"/>
</mask>
<g mask="url(#mask1_1169_2)">
<path fill-rule="evenodd" clip-rule="evenodd" d="M588.861 19.25C565.457 19.25 546.486 38.2214 546.486 61.625C546.486 85.0287 565.457 103.999 588.861 103.999C612.264 103.999 631.236 85.0287 631.236 61.625C631.236 38.2214 612.264 19.25 588.861 19.25" fill="#EC4624"/>
</g>
<path fill-rule="evenodd" clip-rule="evenodd" d="M611.393 58.7388L611.108 59.0815H610.578L601.06 42.7017L599.471 39.8905H595.641H590.865L590.784 42.05L581.958 37.69L583.083 35.5469L572.417 36.6146C572.417 36.6146 571.283 35.7994 571.283 36.6146C571.283 36.6146 568.897 40.4615 566.517 41.838L563.632 42.9708L560.869 47.3798C560.869 47.3798 561.75 48.8866 561.872 49.522L560.242 55.8131L566.264 61.7299H578.064L582.586 64.5005L581.332 68.0207L586.343 77.1145L584.094 82.3705L587.704 88.0099L587.166 90.5199C589.864 90.8942 591.428 96.9407 591.428 96.9407C591.428 95.9963 598.59 94.8632 598.59 94.8632L601.598 91.2774V88.8246L603.48 87.3093V84.0984L608.003 80.5135V72.013L618.172 56.3511L611.393 58.7388Z" fill="#FEFEFE"/>
<path fill-rule="evenodd" clip-rule="evenodd" d="M611.866 86.9939L610.162 88.8924L611.866 91.174L614.904 86.9939L615.85 80.8984L611.866 83.1885V86.9939Z" fill="#FEFEFE"/>
<path fill-rule="evenodd" clip-rule="evenodd" d="M614.904 86.9939L611.866 91.174L610.162 88.8924L611.866 86.9939V83.1885L615.85 80.8984L614.904 86.9939ZM627.648 78.7098L618.052 56.5382L608.003 72.015V80.5152L603.48 84.1004V87.311L601.598 88.8263V91.2791L598.59 94.865C598.59 94.865 591.428 95.9981 591.428 96.9425C591.428 96.9425 589.864 90.896 587.166 90.5216L587.705 88.0117L584.094 82.3725L586.343 77.1162L581.332 68.0227L582.586 64.5022L578.064 61.7316H566.263L560.59 56.1562L586.394 103.927C587.211 103.974 588.033 104 588.862 104C606.185 104 621.078 93.6033 627.648 78.7098V78.7098Z" fill="#B42F11"/>
</svg>
