<svg width="58" height="58" viewBox="0 0 58 58" fill="none" xmlns="http://www.w3.org/2000/svg">
<circle cx="28.6" cy="28.6" r="27.3" stroke="black" stroke-width="2.6"/>
<path fill-rule="evenodd" clip-rule="evenodd" d="M36.5748 15.5938H20.6244C17.8544 15.5938 15.5996 17.847 15.5996 20.6186V36.5689C15.5996 39.3405 17.8544 41.5938 20.6244 41.5938H36.5748C39.3448 41.5938 41.5996 39.3405 41.5996 36.5689V20.6186C41.5996 17.847 39.3448 15.5938 36.5748 15.5938ZM38.0176 18.5968L38.5923 18.5938V23.001L34.1989 23.0147L34.1836 18.6075L38.0176 18.5968ZM24.8887 25.9234C25.7203 24.7708 27.0717 24.0156 28.5988 24.0156C30.126 24.0156 31.4773 24.7708 32.309 25.9234C32.8516 26.6755 33.1757 27.5958 33.1757 28.5925C33.1757 31.1149 31.1227 33.1679 28.5988 33.1679C26.0765 33.1679 24.0234 31.1149 24.0234 28.5925C24.0234 27.5958 24.3475 26.6755 24.8887 25.9234ZM39.0667 36.5662C39.0667 37.9405 37.9493 39.0579 36.575 39.0579H20.6246C19.2503 39.0579 18.1328 37.9405 18.1328 36.5662V25.9219H22.0157C21.6794 26.7474 21.4913 27.6478 21.4913 28.591C21.4913 32.5105 24.6802 35.7009 28.5998 35.7009C32.5209 35.7009 35.7097 32.5105 35.7097 28.591C35.7097 27.6478 35.5186 26.7474 35.1854 25.9219H39.0667V36.5662Z" fill="black"/>
</svg>
