<svg width="40" height="40" viewBox="0 0 40 40" fill="none" xmlns="http://www.w3.org/2000/svg">
<g style="mix-blend-mode:multiply">
<rect x="0.398438" y="0.804688" width="39" height="39" rx="7.8" fill="#E5E5E5"/>
</g>
<path fill-rule="evenodd" clip-rule="evenodd" d="M20.55 6C14.5113 6.15343 9.65181 11.0648 9.5 17.1682C9.60245 18.9727 10.0949 20.7326 10.9426 22.3242L11.0286 22.4793C17.7077 33.3 19.7028 33.3 20.55 33.3C21.876 33.3 23.3064 32.3569 26.6889 27.5484C28.463 25.0666 29.9855 22.5847 30.0469 22.4731L30.1328 22.3242C30.9891 20.7347 31.49 18.9746 31.6 17.1682C31.4482 11.0648 26.5887 6.15343 20.55 6ZM28.5307 21.5094C28.5307 21.5094 22.3918 31.4366 20.5501 31.4366C18.7085 31.4366 12.5696 21.5094 12.5696 21.5094C11.8559 20.1678 11.4371 18.6863 11.3418 17.1662C11.3418 12.0262 15.4645 7.85938 20.5501 7.85938C25.6358 7.85938 29.7585 12.0262 29.7585 17.1662C29.6575 18.6877 29.2324 20.1693 28.5123 21.5094H28.5307Z" fill="black"/>
<path d="M9.5 17.1682L9.1751 17.1601L9.17477 17.1734L9.17552 17.1866L9.5 17.1682ZM10.9426 22.3242L10.6558 22.477L10.6584 22.4817L10.9426 22.3242ZM11.0286 22.4793L10.7443 22.6368L10.748 22.6435L10.752 22.65L11.0286 22.4793ZM26.6889 27.5484L26.4245 27.3594L26.4231 27.3614L26.6889 27.5484ZM30.0469 22.4731L29.7653 22.3106L29.7621 22.3165L30.0469 22.4731ZM30.1328 22.3242L30.4144 22.4867L30.4189 22.4783L30.1328 22.3242ZM31.6 17.1682L31.9244 17.1879L31.9252 17.174L31.9249 17.1601L31.6 17.1682ZM28.5307 21.5094L28.8071 21.6803L29.1138 21.1844H28.5307V21.5094ZM12.5696 21.5094L12.2826 21.662L12.2876 21.6713L12.2932 21.6803L12.5696 21.5094ZM11.3418 17.1662H11.0168V17.1764L11.0174 17.1865L11.3418 17.1662ZM29.7585 17.1662L30.0828 17.1877L30.0835 17.177V17.1662H29.7585ZM28.5123 21.5094L28.226 21.3555L27.9687 21.8344H28.5123V21.5094ZM20.5417 5.6751C14.3269 5.83301 9.33114 10.8867 9.1751 17.1601L9.8249 17.1763C9.97248 11.243 14.6956 6.47385 20.5583 6.3249L20.5417 5.6751ZM9.17552 17.1866C9.28064 19.038 9.78586 20.8438 10.6558 22.477L11.2295 22.1714C10.4039 20.6215 9.92427 18.9074 9.82448 17.1498L9.17552 17.1866ZM10.6584 22.4817L10.7443 22.6368L11.3129 22.3218L11.2269 22.1666L10.6584 22.4817ZM10.752 22.65C14.0954 28.0666 16.2821 30.8015 17.7537 32.1843C18.4913 32.8773 19.0616 33.2425 19.5204 33.4314C19.9892 33.6245 20.3229 33.625 20.55 33.625V32.975C20.3535 32.975 20.1201 32.9755 19.7679 32.8304C19.4056 32.6812 18.9008 32.3701 18.1988 31.7106C16.7913 30.3881 14.6408 27.7127 11.3051 22.3086L10.752 22.65ZM20.55 33.625C21.3142 33.625 22.0768 33.3436 23.0636 32.4708C24.0396 31.6076 25.2607 30.1435 26.9547 27.7354L26.4231 27.3614C24.7345 29.7618 23.5492 31.1735 22.6329 31.9839C21.7274 32.7848 21.1118 32.975 20.55 32.975V33.625ZM26.9533 27.7374C28.7316 25.2498 30.2619 22.7566 30.3317 22.6296L29.7621 22.3165C29.7626 22.3155 29.7614 22.3177 29.7568 22.3256C29.7527 22.3325 29.7471 22.342 29.7399 22.354C29.7255 22.3779 29.7056 22.4107 29.6804 22.4519C29.63 22.5344 29.5591 22.6493 29.47 22.7922C29.2918 23.078 29.0412 23.4748 28.7371 23.9456C28.1288 24.8875 27.3077 26.1239 26.4245 27.3594L26.9533 27.7374ZM30.3283 22.6355L30.4143 22.4866L29.8513 22.1617L29.7654 22.3106L30.3283 22.6355ZM30.4189 22.4783C31.2976 20.8472 31.8115 19.0413 31.9244 17.1879L31.2756 17.1484C31.1684 18.9079 30.6806 20.6221 29.8467 22.17L30.4189 22.4783ZM31.9249 17.1601C31.7689 10.8867 26.7731 5.83301 20.5583 5.6751L20.5417 6.3249C26.4044 6.47385 31.1275 11.243 31.2751 17.1763L31.9249 17.1601ZM28.5307 21.5094C28.2543 21.3384 28.2543 21.3385 28.2542 21.3385C28.2542 21.3386 28.2541 21.3387 28.254 21.3388C28.2539 21.3391 28.2536 21.3395 28.2532 21.3401C28.2525 21.3413 28.2514 21.343 28.25 21.3453C28.2471 21.35 28.2427 21.357 28.237 21.3663C28.2254 21.3849 28.2082 21.4126 28.1856 21.4487C28.1405 21.521 28.0739 21.6271 27.9885 21.7624C27.8177 22.0329 27.5714 22.4195 27.2701 22.8835C26.6673 23.8119 25.8451 25.0487 24.9662 26.2847C24.086 27.5223 23.1543 28.7515 22.3321 29.6685C21.9203 30.1278 21.5436 30.5001 21.2205 30.7549C21.0591 30.8823 20.918 30.9747 20.7985 31.0342C20.6763 31.095 20.5958 31.1116 20.5501 31.1116V31.7616C20.7346 31.7616 20.918 31.7008 21.088 31.6161C21.2608 31.5302 21.4404 31.4094 21.6231 31.2653C21.9883 30.9772 22.3933 30.5739 22.816 30.1025C23.6628 29.1581 24.6111 27.9055 25.4959 26.6614C26.3819 25.4155 27.2095 24.1705 27.8153 23.2375C28.1183 22.7709 28.366 22.3819 28.5381 22.1095C28.6241 21.9733 28.6913 21.8662 28.7369 21.793C28.7598 21.7565 28.7773 21.7284 28.7891 21.7094C28.795 21.6999 28.7994 21.6927 28.8025 21.6878C28.804 21.6854 28.8051 21.6835 28.8059 21.6823C28.8063 21.6816 28.8066 21.6812 28.8068 21.6808C28.8069 21.6807 28.807 21.6805 28.807 21.6805C28.8071 21.6804 28.8071 21.6803 28.5307 21.5094ZM20.5501 31.1116C20.5044 31.1116 20.424 31.095 20.3018 31.0342C20.1823 30.9747 20.0412 30.8823 19.8797 30.7549C19.5567 30.5001 19.18 30.1278 18.7682 29.6685C17.9459 28.7515 17.0142 27.5223 16.1341 26.2847C15.2552 25.0487 14.433 23.8119 13.8301 22.8835C13.5288 22.4195 13.2826 22.0329 13.1117 21.7624C13.0263 21.6271 12.9598 21.521 12.9146 21.4487C12.892 21.4126 12.8748 21.3849 12.8633 21.3663C12.8575 21.357 12.8532 21.35 12.8503 21.3453C12.8488 21.343 12.8477 21.3413 12.847 21.3401C12.8467 21.3395 12.8464 21.3391 12.8462 21.3388C12.8461 21.3387 12.8461 21.3386 12.846 21.3385C12.846 21.3385 12.846 21.3384 12.5696 21.5094C12.2932 21.6803 12.2932 21.6804 12.2932 21.6805C12.2933 21.6805 12.2934 21.6807 12.2935 21.6808C12.2937 21.6812 12.294 21.6816 12.2944 21.6823C12.2951 21.6835 12.2963 21.6854 12.2978 21.6878C12.3008 21.6927 12.3053 21.6999 12.3112 21.7094C12.323 21.7284 12.3405 21.7565 12.3633 21.793C12.409 21.8662 12.4761 21.9733 12.5622 22.1095C12.7342 22.3819 12.982 22.7709 13.285 23.2375C13.8907 24.1705 14.7184 25.4155 15.6044 26.6614C16.4892 27.9055 17.4375 29.1581 18.2842 30.1025C18.7069 30.5739 19.112 30.9772 19.4772 31.2653C19.6598 31.4094 19.8395 31.5302 20.0122 31.6161C20.1823 31.7008 20.3656 31.7616 20.5501 31.7616V31.1116ZM12.8565 21.3567C12.1646 20.0562 11.7586 18.6199 11.6662 17.1459L11.0174 17.1865C11.1156 18.7528 11.5471 20.2794 12.2826 21.662L12.8565 21.3567ZM11.6668 17.1662C11.6668 12.2024 15.6473 8.18438 20.5501 8.18438V7.53437C15.2818 7.53437 11.0168 11.85 11.0168 17.1662H11.6668ZM20.5501 8.18438C25.453 8.18438 29.4335 12.2024 29.4335 17.1662H30.0835C30.0835 11.85 25.8185 7.53437 20.5501 7.53437V8.18438ZM29.4342 17.1447C29.3362 18.62 28.9241 20.0564 28.226 21.3555L28.7986 21.6632C29.5407 20.2821 29.9787 18.7555 30.0828 17.1877L29.4342 17.1447ZM28.5123 21.8344H28.5307V21.1844H28.5123V21.8344Z" fill="black"/>
<path fill-rule="evenodd" clip-rule="evenodd" d="M20.5517 11.5859C17.8394 11.5859 15.6406 13.8082 15.6406 16.5496C15.6406 19.2909 17.8394 21.5132 20.5517 21.5132C23.2641 21.5132 25.4628 19.2909 25.4628 16.5496C25.4628 13.8082 23.2641 11.5859 20.5517 11.5859ZM20.5519 19.6499C18.8567 19.6499 17.4824 18.2609 17.4824 16.5476C17.4824 14.8342 18.8567 13.4453 20.5519 13.4453C22.2471 13.4453 23.6213 14.8342 23.6213 16.5476C23.6213 18.2609 22.2471 19.6499 20.5519 19.6499Z" fill="black"/>
<path d="M20.5517 11.2609C17.6567 11.2609 15.3156 13.632 15.3156 16.5496H15.9656C15.9656 13.9845 18.0221 11.9109 20.5517 11.9109V11.2609ZM15.3156 16.5496C15.3156 19.4671 17.6567 21.8382 20.5517 21.8382V21.1882C18.0221 21.1882 15.9656 19.1147 15.9656 16.5496H15.3156ZM20.5517 21.8382C23.4468 21.8382 25.7878 19.4671 25.7878 16.5496H25.1378C25.1378 19.1147 23.0813 21.1882 20.5517 21.1882V21.8382ZM25.7878 16.5496C25.7878 13.632 23.4468 11.2609 20.5517 11.2609V11.9109C23.0813 11.9109 25.1378 13.9845 25.1378 16.5496H25.7878ZM20.5519 19.3249C19.0394 19.3249 17.8074 18.0847 17.8074 16.5476H17.1574C17.1574 18.4371 18.6739 19.9749 20.5519 19.9749V19.3249ZM17.8074 16.5476C17.8074 15.0105 19.0394 13.7703 20.5519 13.7703V13.1203C18.6739 13.1203 17.1574 14.658 17.1574 16.5476H17.8074ZM20.5519 13.7703C22.0643 13.7703 23.2963 15.0105 23.2963 16.5476H23.9463C23.9463 14.658 22.4298 13.1203 20.5519 13.1203V13.7703ZM23.2963 16.5476C23.2963 18.0847 22.0643 19.3249 20.5519 19.3249V19.9749C22.4298 19.9749 23.9463 18.4371 23.9463 16.5476H23.2963Z" fill="black"/>
</svg>
