<svg width="58" height="58" viewBox="0 0 58 58" fill="none" xmlns="http://www.w3.org/2000/svg">
<circle cx="28.6" cy="28.6" r="27.3" stroke="black" stroke-width="2.6"/>
<path fill-rule="evenodd" clip-rule="evenodd" d="M39.6836 21.9026C40.8405 21.1725 41.7283 20.0148 42.1449 18.6358C41.0617 19.3135 39.8647 19.8036 38.5876 20.0689C37.5684 18.9197 36.1119 18.2031 34.4999 18.2031C31.4072 18.2031 28.9011 20.848 28.9011 24.1097C28.9011 24.5728 28.9476 25.024 29.0437 25.455C24.3903 25.2083 20.2642 22.8591 17.5 19.283C17.0177 20.1585 16.7421 21.1725 16.7421 22.2541C16.7421 24.3024 17.7308 26.1107 19.2338 27.1721C18.3157 27.1416 17.452 26.8729 16.6956 26.4335V26.5062C16.6956 29.3691 18.6249 31.7571 21.1904 32.2979C20.7193 32.4365 20.2257 32.5058 19.713 32.5058C19.3524 32.5058 18.9999 32.4703 18.6602 32.401C19.3716 34.7467 21.4403 36.457 23.892 36.5026C21.9739 38.0879 19.5591 39.0309 16.936 39.0309C16.4841 39.0309 16.0371 39.0056 15.5996 38.9498C18.0785 40.6246 21.0221 41.6031 24.1852 41.6031C34.4886 41.6031 40.1195 32.6021 40.1195 24.7959C40.1195 24.539 40.1162 24.2838 40.105 24.032C41.1995 23.1988 42.1513 22.1578 42.8996 20.9731C41.8949 21.4429 40.8149 21.7606 39.6836 21.9026Z" fill="black"/>
</svg>
