<svg width="36" height="36" viewBox="0 0 36 36" fill="none" xmlns="http://www.w3.org/2000/svg">
<g style="mix-blend-mode:multiply">
<rect width="36" height="36" rx="7.2" fill="#E5E5E5"/>
</g>
<path fill-rule="evenodd" clip-rule="evenodd" d="M28.1731 13.3125L27.0918 14.4034C29.0382 16.367 29.0382 19.4216 27.0918 21.4943L28.1731 22.5852C30.8765 20.0761 30.8765 15.9307 28.1731 13.3125V13.3125ZM25.9017 15.6016L24.8203 16.6925C25.361 17.4561 25.361 18.4379 24.8203 19.2016L25.9017 20.2925C27.1993 18.9834 27.1993 17.0197 25.9017 15.6016V15.6016ZM21.5758 6H10.7623C9.57283 6 8.59961 6.98182 8.59961 8.18182V27.8182C8.59961 29.0182 9.57283 30 10.7623 30H21.5758C22.7653 30 23.7385 29.0182 23.7385 27.8182V8.18182C23.7385 6.98182 22.7653 6 21.5758 6V6ZM21.5772 26.728H10.7637V9.27344H21.5772V26.728V26.728Z" fill="black"/>
</svg>
