<svg width="36" height="36" viewBox="0 0 36 36" fill="none" xmlns="http://www.w3.org/2000/svg">
<g style="mix-blend-mode:multiply">
<rect width="36" height="36" rx="7.2" fill="#E5E5E5"/>
</g>
<path fill-rule="evenodd" clip-rule="evenodd" d="M23 21.5969C22.8176 21.5969 22.6328 21.5549 22.4636 21.4709C22.0568 21.2681 21.8 20.8517 21.8 20.3969V17.9969H20.6V15.5969H23C23.6624 15.5969 24.2 16.1345 24.2 16.7969V17.9969L27.08 15.8369C27.2876 15.6809 27.5408 15.5969 27.8 15.5969H31.4V7.19687H19.4V10.7969H17V7.19687C17 5.87207 18.0764 4.79688 19.4 4.79688H31.4C32.7236 4.79688 33.8 5.87207 33.8 7.19687V15.5969C33.8 16.9205 32.7236 17.9969 31.4 17.9969H28.1996L23.72 21.3569C23.5076 21.5153 23.2544 21.5969 23 21.5969ZM14.6012 14.3984C13.2776 14.3984 12.2012 15.4736 12.2012 16.7984C12.2012 18.122 13.2776 19.1984 14.6012 19.1984C15.9248 19.1984 17.0012 18.122 17.0012 16.7984C17.0012 15.4736 15.9248 14.3984 14.6012 14.3984ZM14.6008 21.6C11.9536 21.6 9.80078 19.4472 9.80078 16.8C9.80078 14.1528 11.9536 12 14.6008 12C17.248 12 19.4008 14.1528 19.4008 16.8C19.4008 19.4472 17.248 21.6 14.6008 21.6ZM21.6094 28.7953H7.58984C8.30744 26.6257 10.9894 25.1953 14.599 25.1953C18.2086 25.1953 20.8918 26.6257 21.6094 28.7953ZM5 31.1969H24.2V29.9969C24.2 25.7573 20.2532 22.7969 14.6 22.7969C8.948 22.7969 5 25.7573 5 29.9969V31.1969Z" fill="black"/>
</svg>
