<svg width="36" height="36" viewBox="0 0 36 36" fill="none" xmlns="http://www.w3.org/2000/svg">
<g style="mix-blend-mode:multiply">
<rect width="36" height="36" rx="7.2" fill="#E5E5E5"/>
</g>
<path fill-rule="evenodd" clip-rule="evenodd" d="M8.40039 18.4784C8.40039 15.8052 9.46218 13.2414 11.3523 11.351C13.2427 9.4605 15.8068 8.39844 18.4804 8.39844C21.1539 8.39844 23.718 9.4605 25.6085 11.351C27.499 13.2415 28.561 15.8055 28.561 18.4791C28.561 21.1526 27.499 23.7167 25.6085 25.6072C24.6736 26.5439 23.5627 27.2867 22.3399 27.7929C21.1172 28.2991 19.8064 28.5588 18.483 28.5571C17.1588 28.5591 15.8472 28.2994 14.6237 27.793C13.4002 27.2865 12.2889 26.5432 11.3536 25.6059H11.3523C9.46218 23.7154 8.40039 21.1517 8.40039 18.4784ZM10.294 18.4824C10.294 20.654 11.1555 22.7369 12.6893 24.2741C14.2264 25.8083 16.3093 26.67 18.481 26.67C20.6527 26.67 22.7357 25.8083 24.2727 24.2741C25.8066 22.7369 26.6681 20.654 26.6681 18.4824C26.6681 16.3108 25.8066 14.2279 24.2727 12.6907C23.5136 11.9283 22.6114 11.3235 21.6178 10.9111C20.6242 10.4986 19.5588 10.2866 18.483 10.2872C17.4063 10.2853 16.34 10.4963 15.3452 10.9081C14.3505 11.3199 13.4469 11.9243 12.6866 12.6867L12.6893 12.6907C11.1555 14.2279 10.294 16.3108 10.294 18.4824ZM17.7866 19.129C17.5949 18.9373 17.4872 18.6773 17.4869 18.4061V13.3141C17.4869 13.0432 17.5946 12.7834 17.7861 12.5919C17.9776 12.4003 18.2374 12.2927 18.5082 12.2927C18.7791 12.2927 19.0388 12.4003 19.2304 12.5919C19.4219 12.7834 19.5296 13.0432 19.5296 13.3141V17.9777L21.4582 19.9063C21.553 20.0011 21.6282 20.1137 21.6795 20.2377C21.7308 20.3616 21.7574 20.4944 21.7574 20.6285C21.7574 20.7627 21.7308 20.8955 21.6795 21.0194C21.6282 21.1433 21.553 21.2559 21.4582 21.3508C21.3634 21.4459 21.2506 21.5214 21.1266 21.5728C21.0025 21.6243 20.8695 21.6507 20.7352 21.6505C20.6009 21.6506 20.4679 21.6242 20.3439 21.5727C20.2198 21.5213 20.1073 21.4458 20.0124 21.3508L20.015 21.3574L17.7866 19.129Z" fill="black"/>
</svg>
