<svg width="36" height="36" viewBox="0 0 36 36" fill="none" xmlns="http://www.w3.org/2000/svg">
<path fill-rule="evenodd" clip-rule="evenodd" d="M17.99 6C11.366 6 6.00195 11.376 6.00195 18C6.00195 24.624 11.366 30 17.99 30C24.626 30 30.002 24.624 30.002 18C30.002 11.376 24.626 6 17.99 6V6ZM26.3054 13.1939H22.7654C22.3814 11.6939 21.8294 10.2539 21.1094 8.92188C23.3174 9.67787 25.1534 11.2139 26.3054 13.1939V13.1939ZM18.001 8.44531C18.997 9.88531 19.777 11.4813 20.293 13.1973H15.709C16.225 11.4813 17.005 9.88531 18.001 8.44531V8.44531ZM8.71434 20.4016C8.52234 19.6336 8.40234 18.8296 8.40234 18.0016C8.40234 17.1736 8.52234 16.3696 8.71434 15.6016H12.7703C12.6743 16.3936 12.6023 17.1856 12.6023 18.0016C12.6023 18.8176 12.6743 19.6096 12.7703 20.4016H8.71434V20.4016ZM9.69727 22.7969H13.2373C13.6213 24.2969 14.1733 25.7369 14.8933 27.0689C12.6853 26.3129 10.8493 24.7889 9.69727 22.7969V22.7969ZM13.2373 13.1939H9.69727C10.8493 11.2019 12.6853 9.67787 14.8933 8.92188C14.1733 10.2539 13.6213 11.6939 13.2373 13.1939V13.1939ZM18.001 27.5489C17.005 26.1089 16.225 24.5129 15.709 22.7969H20.293C19.777 24.5129 18.997 26.1089 18.001 27.5489V27.5489ZM20.81 20.4016H15.194C15.086 19.6096 15.002 18.8176 15.002 18.0016C15.002 17.1856 15.086 16.3816 15.194 15.6016H20.81C20.918 16.3816 21.002 17.1856 21.002 18.0016C21.002 18.8176 20.918 19.6096 20.81 20.4016V20.4016ZM21.1094 27.0689C21.8294 25.7369 22.3814 24.2969 22.7654 22.7969H26.3054C25.1534 24.7769 23.3174 26.3129 21.1094 27.0689V27.0689ZM23.2324 20.4016C23.3284 19.6096 23.4004 18.8176 23.4004 18.0016C23.4004 17.1856 23.3284 16.3936 23.2324 15.6016H27.2884C27.4804 16.3696 27.6004 17.1736 27.6004 18.0016C27.6004 18.8296 27.4804 19.6336 27.2884 20.4016H23.2324V20.4016Z" fill="black"/>
<g style="mix-blend-mode:multiply">
<rect width="36" height="36" rx="7.2" fill="#E5E5E5"/>
</g>
</svg>
